<svg xmlns="http://www.w3.org/2000/svg" version="1.0" width="512.000000pt" height="512.000000pt" viewBox="0 0 512.000000 512.000000" preserveAspectRatio="xMidYMid meet">

<g transform="translate(0.000000,512.000000) scale(0.100000,-0.100000)" fill="#f8cf47" stroke="none">
<path d="M2488 5099 c-56 -29 -78 -80 -78 -178 0 -76 -1 -81 -22 -85 -126 -24 -198 -40 -255 -57 l-68 -21 0 -416 c0 -416 0 -417 -23 -453 -53 -86 -169 -92 -242 -14 l-25 27 -3 344 c-1 189 -6 344 -11 344 -43 0 -285 -242 -369 -368 -160 -240 -228 -460 -239 -769 l-6 -171 -88 -4 c-69 -2 -93 -7 -115 -24 -50 -37 -68 -70 -68 -124 0 -56 20 -91 74 -127 l33 -23 1577 0 1577 0 33 23 c54 36 74 71 74 127 0 54 -18 87 -68 124 -22 17 -46 22 -115 24 l-88 4 -6 171 c-6 183 -24 291 -71 431 -64 189 -173 370 -313 517 -87 91 -202 189 -222 189 -8 0 -11 -95 -11 -330 0 -357 0 -359 -55 -410 -22 -21 -36 -25 -88 -25 -69 0 -101 17 -134 70 -17 28 -18 60 -18 447 l0 416 -68 21 c-57 17 -129 33 -254 57 -22 4 -23 9 -23 85 0 100 -22 149 -80 179 -49 25 -94 25 -142 -1z m158 -259 l64 0 -2 -554 c-3 -542 -3 -555 -24 -582 -37 -50 -72 -69 -124 -69 -52 0 -87 19 -124 69 -21 27 -21 40 -24 581 l-2 554 72 3 c40 2 79 3 86 1 8 -2 43 -3 78 -3z" fill="#f8cf47"/>
<path d="M1885 4840 c-78 -17 -115 -72 -115 -169 0 -34 3 -61 7 -61 3 0 27 13 52 30 26 16 86 48 134 70 48 23 87 44 87 48 0 14 -31 52 -53 63 -33 18 -79 26 -112 19z" fill="#f8cf47"/>
<path d="M3175 4840 c-16 -4 -40 -12 -53 -19 -23 -12 -58 -58 -50 -66 3 -3 45 -25 95 -49 50 -24 109 -56 131 -70 23 -14 44 -26 47 -26 12 0 4 125 -11 155 -26 56 -95 88 -159 75z" fill="#f8cf47"/>
<path d="M1340 2368 c0 -358 10 -450 65 -616 166 -497 631 -832 1155 -832 524 0 988 334 1155 832 55 166 65 258 65 616 l0 312 -1220 0 -1220 0 0 -312z" fill="#f8cf47"/>
<path d="M1580 935 c0 -44 -21 -86 -56 -114 l-27 -21 18 -48 c69 -183 204 -378 346 -499 184 -156 391 -237 644 -250 314 -16 601 92 814 307 117 117 229 292 286 442 l18 48 -27 21 c-34 27 -49 55 -56 106 l-5 43 -90 -65 c-103 -74 -293 -172 -407 -210 -197 -65 -461 -91 -662 -66 -265 34 -552 152 -743 307 -23 19 -44 34 -47 34 -3 0 -6 -16 -6 -35z" fill="#f8cf47"/>
<path d="M865 512 c-343 -159 -448 -213 -585 -305 -76 -51 -270 -197 -270 -203 0 -2 377 -4 839 -4 l838 0 -101 103 c-55 56 -130 143 -164 192 -60 85 -192 334 -192 362 0 7 -6 13 -12 13 -7 0 -166 -71 -353 -158z" fill="#f8cf47"/>
<path d="M3890 658 c0 -22 -104 -229 -152 -303 -64 -100 -156 -211 -238 -288 l-70 -67 840 0 c462 0 840 2 840 4 0 18 -336 251 -461 320 -90 49 -730 346 -746 346 -7 0 -13 -6 -13 -12z" fill="#f8cf47"/>
</g>
</svg>