<svg xmlns="http://www.w3.org/2000/svg" version="1.0" width="512.000000pt" height="512.000000pt" viewBox="0 0 512.000000 512.000000" preserveAspectRatio="xMidYMid meet">

<g transform="translate(0.000000,512.000000) scale(0.100000,-0.100000)" fill="#f8cf47" stroke="none">
<path d="M2380 5113 c-244 -23 -413 -57 -611 -123 -417 -138 -784 -372 -1076 -686 l-93 -99 0 93 c0 73 -4 101 -20 132 -23 45 -80 80 -130 80 -50 0 -107 -35 -130 -80 -19 -37 -20 -58 -20 -384 0 -219 4 -355 11 -373 15 -41 58 -82 96 -92 22 -6 142 -3 351 10 362 22 386 28 422 98 11 22 20 54 20 71 0 51 -35 107 -82 131 -40 21 -47 21 -207 10 -90 -6 -166 -9 -168 -7 -7 7 127 167 217 256 406 407 941 643 1510 667 538 22 1075 -155 1503 -496 406 -323 700 -807 801 -1316 27 -136 46 -306 46 -413 0 -82 26 -134 80 -162 50 -25 90 -25 140 0 78 40 91 104 70 345 -44 493 -214 931 -524 1345 -91 122 -344 375 -466 466 -414 310 -852 480 -1345 524 -103 9 -316 11 -395 3z" fill="#f8cf47"/>
<path d="M3100 4194 c-42 -18 -1517 -1486 -1561 -1553 -17 -27 -29 -58 -29 -78 0 -50 32 -105 76 -129 22 -12 199 -74 394 -139 195 -65 357 -120 360 -122 2 -2 -114 -241 -259 -531 -287 -575 -292 -589 -249 -652 30 -45 83 -80 120 -80 16 0 45 7 66 15 44 19 1516 1483 1563 1554 17 27 29 58 29 78 0 50 -32 105 -76 129 -22 12 -199 74 -394 139 -195 65 -357 120 -360 122 -2 2 114 241 259 531 287 575 292 589 249 652 -50 73 -115 95 -188 64z m-595 -1106 c-65 -131 -95 -203 -95 -226 0 -51 41 -115 87 -135 21 -10 183 -66 361 -125 l322 -107 -331 -330 -330 -330 95 194 c106 215 111 238 71 306 -30 53 -33 54 -433 186 l-312 104 327 327 c181 181 329 328 330 328 1 0 -40 -86 -92 -192z" fill="#f8cf47"/>
<path d="M78 2689 c-76 -40 -89 -106 -68 -344 44 -493 214 -931 524 -1345 91 -122 344 -375 466 -466 498 -373 1057 -553 1645 -530 560 21 1071 211 1515 562 47 37 147 130 222 206 l138 138 0 -90 c0 -71 4 -99 20 -130 23 -45 80 -80 130 -80 50 0 107 35 130 80 19 37 20 58 20 384 0 219 -4 355 -11 373 -15 41 -58 82 -96 92 -22 6 -142 3 -351 -10 -362 -22 -386 -28 -422 -98 -11 -22 -20 -54 -20 -71 0 -51 35 -107 82 -131 40 -21 47 -21 207 -10 90 6 166 9 168 7 7 -7 -127 -167 -217 -256 -406 -407 -941 -643 -1510 -667 -559 -23 -1112 168 -1550 535 -380 318 -657 788 -754 1277 -27 136 -46 306 -46 413 0 82 -26 134 -80 162 -49 25 -94 25 -142 -1z" fill="#f8cf47"/>
</g>
</svg>