<svg xmlns="http://www.w3.org/2000/svg" version="1.0" width="512.000000pt" height="512.000000pt" viewBox="0 0 512.000000 512.000000" preserveAspectRatio="xMidYMid meet">

<g transform="translate(0.000000,512.000000) scale(0.100000,-0.100000)" fill="#f8cf47" stroke="none">
<path d="M1095 5061 c-50 -22 -92 -71 -101 -115 -5 -30 -11 -35 -51 -45 -219 -56 -432 -242 -528 -464 -21 -49 -35 -67 -48 -67 -32 0 -97 -42 -119 -78 -25 -40 -27 -115 -4 -159 23 -45 71 -75 127 -81 l48 -4 -32 -56 c-27 -48 -31 -66 -31 -127 -1 -115 56 -200 164 -248 55 -24 60 -31 60 -83 0 -57 33 -159 70 -217 40 -64 112 -132 177 -169 l53 -30 0 -114 c0 -113 0 -114 -24 -114 -13 0 -68 -11 -122 -25 -260 -66 -471 -239 -585 -480 -88 -188 -83 -121 -87 -1065 -2 -613 0 -846 9 -877 15 -55 68 -116 124 -143 35 -17 71 -23 150 -28 98 -5 105 -6 105 -26 0 -73 48 -147 115 -177 37 -17 79 -19 623 -19 620 0 622 0 675 48 31 27 57 88 57 130 l0 39 111 6 c90 5 121 10 158 29 52 27 105 91 121 146 6 24 10 314 10 828 0 665 -2 805 -15 879 -30 173 -109 327 -234 458 -150 157 -337 251 -547 274 l-69 8 0 115 0 114 40 23 c138 77 235 226 251 386 l6 63 47 17 c106 38 174 136 173 251 0 64 -26 145 -51 160 -21 13 -11 26 20 26 99 0 175 102 149 200 -14 54 -70 108 -118 116 -36 6 -39 10 -76 91 -43 91 -83 151 -155 226 -89 93 -231 180 -349 213 -56 16 -61 19 -67 50 -12 64 -97 134 -165 134 -14 0 -43 -9 -65 -19z m120 -96 l25 -24 0 -236 c0 -144 4 -244 10 -256 12 -21 50 -25 68 -7 8 8 12 66 12 196 l0 184 33 -7 c54 -12 168 -69 234 -118 78 -58 164 -161 209 -252 l35 -70 -340 -3 c-188 -1 -494 -1 -682 0 l-341 3 36 68 c66 127 154 221 285 302 41 26 161 75 181 75 6 0 10 -71 10 -183 0 -129 4 -187 12 -195 18 -18 56 -14 68 7 6 12 10 112 10 256 l0 236 25 24 c15 16 36 25 55 25 19 0 40 -9 55 -25z m774 -711 c27 -35 26 -57 -3 -91 l-24 -28 -802 0 -802 0 -24 28 c-29 34 -30 56 -3 91 l20 26 809 0 809 0 20 -26z m-237 -214 c72 -20 137 -102 138 -173 0 -36 -25 -95 -53 -126 -27 -29 -93 -60 -129 -61 -37 0 -44 -19 -51 -123 -6 -105 -42 -189 -111 -260 -100 -103 -191 -131 -415 -125 -149 4 -159 5 -223 35 -156 73 -248 220 -248 397 0 61 -8 70 -65 80 -58 11 -109 48 -134 98 -45 94 -13 192 78 240 l53 28 562 0 c355 0 575 -4 598 -10z m-384 -1086 c-3 -125 -5 -134 -33 -179 -37 -60 -98 -95 -166 -95 -61 0 -96 13 -138 53 -53 50 -61 81 -61 224 l0 128 201 0 201 0 -4 -131z m195 -164 c5 -4 -22 -87 -60 -185 l-68 -177 -83 88 c-72 77 -81 90 -66 99 64 37 102 76 129 132 l30 61 55 -5 c30 -3 59 -9 63 -13z m-654 -34 c23 -54 90 -121 137 -138 19 -6 34 -14 34 -18 0 -3 -36 -43 -78 -89 l-78 -85 -37 100 c-101 276 -97 263 -79 267 10 3 31 5 49 6 29 1 34 -4 52 -43z m-121 -215 c92 -253 99 -262 161 -206 l41 37 0 -29 c0 -16 11 -51 25 -78 l24 -49 -22 -35 c-21 -35 -22 -47 -25 -323 -2 -184 1 -301 8 -327 13 -51 51 -96 101 -122 l39 -19 0 -170 0 -170 -300 0 -300 0 0 528 c0 397 -3 531 -12 540 -17 17 -44 15 -62 -4 -14 -14 -16 -82 -16 -605 l0 -589 -155 0 -155 0 0 528 c0 290 5 571 10 624 19 196 93 351 235 493 50 50 116 105 147 123 68 41 172 84 176 74 2 -4 38 -103 80 -221z m999 177 c153 -74 279 -202 359 -363 81 -166 78 -133 82 -822 l3 -613 -156 0 -155 0 -2 596 c-3 556 -4 598 -21 608 -12 8 -22 8 -35 0 -16 -10 -17 -49 -20 -543 l-2 -531 -310 0 -310 0 0 170 0 170 38 19 c47 24 77 56 97 103 12 31 15 88 15 326 0 286 0 289 -24 337 l-25 48 21 29 c11 16 22 47 25 69 l6 40 26 -24 c34 -31 56 -38 74 -24 13 10 84 184 176 430 13 34 20 33 138 -25z m-507 -330 c0 -98 -8 -108 -97 -108 -92 0 -103 11 -103 109 l0 75 51 52 52 52 48 -51 48 -52 1 -77z m-57 -209 c56 -29 57 -30 57 -347 l0 -294 -29 -29 c-31 -31 -83 -39 -122 -19 -45 25 -49 52 -49 351 l0 281 34 34 c36 36 70 43 109 23z m617 -1583 c0 -203 -4 -376 -9 -389 -6 -14 -20 -35 -32 -46 -22 -20 -32 -21 -296 -21 l-273 0 0 238 0 238 54 17 c71 23 142 84 132 115 -10 32 -52 39 -79 14 -79 -72 -192 -76 -281 -11 -22 16 -48 29 -57 29 -25 0 -42 -26 -35 -54 7 -28 83 -82 138 -97 l38 -10 0 -239 0 -240 -266 0 c-163 0 -273 4 -285 10 -47 26 -49 45 -49 440 l0 370 650 0 650 0 0 -364z m-1390 -1 l0 -235 -87 0 c-105 0 -160 22 -195 78 -21 34 -23 50 -26 215 l-4 177 156 0 156 0 0 -235z m1780 59 c0 -163 -2 -179 -22 -215 -34 -60 -85 -80 -194 -77 l-89 3 -3 233 -2 232 155 0 155 0 0 -176z" fill="#f8cf47"/>
<path d="M3575 5069 c-635 -55 -1140 -569 -1182 -1205 -4 -68 -3 -97 7 -109 10 -12 43 -15 191 -15 115 0 180 4 184 11 4 5 11 52 15 102 10 118 32 202 80 304 48 102 85 157 168 245 156 165 368 262 602 275 251 13 481 -72 663 -246 69 -66 166 -187 155 -195 -1 -2 -25 -9 -51 -16 -68 -18 -97 -44 -97 -85 0 -25 6 -39 24 -50 37 -24 409 -136 432 -130 13 3 81 78 158 172 142 175 152 195 120 242 -14 19 -23 22 -58 19 -22 -3 -63 -11 -90 -19 -36 -10 -50 -11 -53 -2 -2 6 -30 53 -61 104 -70 114 -251 303 -362 376 -257 172 -548 248 -845 222z m360 -108 c360 -76 637 -288 829 -633 42 -76 51 -79 126 -53 24 8 45 14 46 12 2 -2 -13 -23 -34 -48 -20 -25 -65 -80 -99 -122 l-62 -75 -113 35 c-62 20 -131 41 -153 48 l-40 12 58 17 c101 30 98 64 -23 224 -236 314 -652 457 -1034 357 -383 -100 -680 -437 -729 -825 l-11 -90 -108 0 -108 0 0 39 c0 64 29 211 61 305 78 233 244 457 442 597 145 103 342 185 497 208 41 6 86 13 100 15 52 9 269 -5 355 -23z" fill="#f8cf47"/>
<path d="M3552 4448 c-7 -7 -12 -36 -12 -65 l0 -54 -47 -19 c-27 -11 -56 -25 -66 -31 -15 -8 -26 -3 -63 30 -24 23 -49 41 -55 41 -21 0 -189 -173 -189 -194 0 -11 16 -37 36 -57 l36 -37 -25 -64 -26 -63 -53 -3 c-29 -2 -58 -8 -65 -14 -18 -15 -18 -261 0 -276 7 -6 36 -12 65 -14 l53 -3 26 -63 25 -64 -36 -37 c-20 -20 -36 -46 -36 -57 0 -23 168 -194 191 -194 8 0 32 18 53 39 l38 39 52 -23 c28 -12 59 -25 69 -28 13 -5 17 -18 17 -60 0 -29 5 -58 12 -65 8 -8 53 -12 134 -12 116 0 124 1 138 22 9 13 16 43 16 70 0 34 4 48 14 48 7 0 37 10 65 22 l52 21 37 -36 c21 -21 44 -37 52 -37 22 0 190 172 190 194 0 11 -16 36 -35 56 l-36 37 26 54 c13 30 25 60 25 67 0 8 18 12 54 12 78 0 86 15 86 150 0 135 -8 150 -86 150 -36 0 -54 4 -54 13 0 6 -12 36 -25 66 l-26 54 36 37 c19 20 35 45 35 56 0 21 -168 194 -189 194 -6 0 -30 -17 -54 -39 l-42 -38 -50 23 c-27 13 -56 24 -62 24 -9 0 -13 16 -13 48 0 27 -7 57 -16 70 -14 21 -22 22 -138 22 -81 0 -126 -4 -134 -12z m198 -127 c0 -56 6 -62 80 -86 30 -10 73 -28 96 -41 22 -13 44 -24 47 -24 4 0 25 16 47 37 l41 36 44 -43 45 -44 -35 -36 c-40 -41 -42 -53 -15 -98 11 -18 29 -60 41 -95 11 -34 25 -68 31 -74 6 -7 32 -13 59 -13 l49 0 0 -60 0 -60 -43 0 c-56 0 -71 -13 -92 -80 -9 -30 -28 -74 -41 -97 -13 -23 -24 -47 -24 -54 0 -7 16 -29 35 -49 l35 -36 -45 -44 -45 -44 -33 32 c-39 38 -53 39 -115 8 -26 -13 -67 -30 -92 -37 -64 -18 -70 -25 -70 -80 l0 -49 -65 0 -65 0 0 49 c0 54 -7 63 -65 81 -22 7 -66 26 -97 41 -32 16 -60 29 -63 29 -3 0 -23 -16 -45 -37 l-41 -36 -39 38 c-22 22 -40 44 -40 50 0 6 14 24 30 40 33 31 38 60 16 90 -7 11 -26 54 -41 97 -29 82 -36 88 -107 88 l-38 0 0 60 0 60 48 0 c26 0 53 4 59 8 7 4 21 33 32 63 10 30 28 74 40 97 28 55 27 73 -9 107 -16 16 -30 32 -30 35 0 4 19 26 41 49 l42 42 36 -35 c20 -20 42 -36 48 -36 5 0 40 16 77 35 37 19 75 35 85 35 9 0 27 7 39 16 18 12 22 25 22 65 l0 49 65 0 65 0 0 -49z" fill="#f8cf47"/>
<path d="M3586 4063 c-66 -23 -147 -99 -176 -164 -66 -154 13 -341 170 -400 78 -30 176 -23 249 17 177 96 209 335 66 479 -75 74 -206 104 -309 68z m189 -92 c140 -63 166 -247 50 -349 -47 -42 -77 -53 -141 -53 -177 0 -275 208 -162 345 59 72 167 96 253 57z" fill="#f8cf47"/>
<path d="M4603 3808 c-6 -7 -15 -60 -22 -117 -35 -314 -214 -576 -491 -716 -294 -149 -656 -121 -925 70 -111 79 -276 269 -243 279 7 3 31 10 53 16 69 21 85 36 85 80 0 30 -5 43 -22 54 -13 8 -111 42 -219 76 -164 50 -201 59 -220 49 -27 -12 -269 -306 -283 -344 -13 -32 6 -72 39 -85 18 -7 42 -4 87 10 35 11 68 20 73 20 6 0 24 -27 42 -59 118 -214 341 -422 568 -530 183 -88 343 -124 550 -125 171 -1 255 12 405 60 193 62 347 155 500 300 158 152 267 322 334 524 56 167 85 407 54 438 -17 17 -352 17 -365 0z m287 -119 c0 -28 -9 -97 -21 -152 -85 -420 -401 -775 -807 -906 -138 -45 -214 -56 -377 -56 -162 0 -259 16 -395 62 -280 96 -534 313 -670 575 -23 44 -49 79 -60 83 -10 3 -43 -1 -71 -9 -29 -9 -54 -16 -56 -16 -2 0 40 54 94 120 54 66 104 120 111 120 22 0 282 -83 282 -90 0 -4 -21 -13 -47 -21 -25 -8 -52 -23 -60 -35 -12 -18 -10 -27 13 -70 95 -181 289 -351 495 -432 129 -51 218 -67 374 -66 117 1 156 5 239 27 230 61 436 206 565 396 88 129 153 298 166 433 10 94 2 88 120 88 l105 0 0 -51z" fill="#f8cf47"/>
<path d="M3687 2319 c-129 -19 -261 -118 -323 -244 -27 -56 -29 -68 -29 -175 0 -108 2 -119 31 -181 38 -79 87 -136 155 -179 l49 -32 0 -124 0 -124 -95 0 c-106 0 -151 -13 -198 -58 -58 -55 -62 -70 -67 -292 l-5 -205 -305 -5 c-212 -3 -311 -9 -326 -17 -32 -18 -83 -80 -91 -111 -5 -15 -8 -120 -8 -234 0 -193 1 -208 21 -235 11 -15 36 -36 55 -45 32 -17 110 -18 1202 -18 1286 0 1217 -3 1257 62 18 30 20 50 20 248 0 242 -4 259 -73 314 l-39 31 -309 3 -309 3 0 197 c0 217 -7 249 -66 304 -48 45 -94 58 -199 58 l-95 0 0 124 0 124 50 32 c65 41 113 98 153 180 30 61 32 71 32 175 0 103 -2 114 -32 177 -85 179 -261 274 -456 247z m220 -119 c255 -126 247 -489 -14 -612 -146 -69 -330 -18 -418 115 -195 295 116 652 432 497z m-57 -833 l0 -108 -97 3 -98 3 -3 105 -3 105 101 0 100 0 0 -108z m297 -210 c43 -23 63 -64 63 -127 l0 -50 -455 0 c-510 0 -473 -6 -460 76 8 56 47 102 95 114 19 5 190 8 380 7 309 -2 348 -4 377 -20z m63 -357 l0 -100 -457 2 -458 3 -3 84 c-2 46 -1 90 2 98 4 11 90 13 461 13 l455 0 0 -100z m676 -195 c56 -23 64 -56 64 -264 0 -150 -3 -182 -16 -195 -14 -14 -135 -16 -1179 -16 -1044 0 -1165 2 -1179 16 -23 23 -23 371 0 415 31 61 -23 58 1177 59 942 0 1103 -2 1133 -15z" fill="#f8cf47"/>
</g>
</svg>