<svg xmlns="http://www.w3.org/2000/svg" version="1.0" width="512.000000pt" height="512.000000pt" viewBox="0 0 512.000000 512.000000" preserveAspectRatio="xMidYMid meet">

<g transform="translate(0.000000,512.000000) scale(0.100000,-0.100000)" fill="#f8cf47" stroke="none">
<path d="M2325 4200 c-261 -30 -420 -78 -885 -265 l-359 -145 -201 0 c-224 0 -264 -8 -276 -55 -7 -26 14 -93 377 -1217 l80 -248 1457 0 1457 0 233 713 c128 391 232 722 232 733 0 12 -9 32 -19 45 -19 24 -21 24 -243 27 l-223 3 -385 154 c-399 160 -554 209 -755 240 -124 19 -383 27 -490 15z m350 -150 c251 -24 504 -98 835 -244 32 -14 -57 -15 -985 -15 -586 0 -1014 3 -1005 8 8 5 89 39 180 76 374 151 666 204 975 175z m-1230 -490 c14 -16 30 -115 83 -525 l66 -506 -26 -26 c-33 -32 -80 -35 -109 -6 -18 17 -28 80 -79 504 -33 266 -60 496 -60 512 0 59 85 91 125 47z m559 -3 c14 -14 25 -41 29 -68 14 -103 60 -936 53 -962 -13 -55 -109 -67 -136 -17 -5 10 -24 243 -42 518 l-32 501 24 26 c30 32 73 33 104 2z m575 -3 c21 -26 21 -36 21 -520 0 -347 -3 -500 -11 -518 -21 -45 -91 -53 -125 -14 -18 19 -19 49 -22 507 -1 267 0 496 3 509 16 63 96 84 134 36z m566 6 c15 -17 19 -35 17 -90 -6 -154 -61 -936 -68 -954 -10 -27 -62 -46 -94 -34 -56 19 -56 14 -21 555 24 378 36 503 47 521 20 30 92 31 119 2z m568 -12 l21 -28 -63 -487 c-36 -275 -69 -500 -77 -515 -26 -51 -102 -50 -129 1 -13 27 -10 66 40 478 30 246 57 468 61 492 12 87 100 122 147 59z" fill="#f8cf47"/>
<path d="M455 2085 c-25 -24 -25 -26 -25 -205 l0 -180 -100 0 -100 0 0 75 c0 67 -3 79 -25 100 -31 32 -69 32 -100 0 l-25 -24 0 -213 c1 -224 2 -233 48 -257 27 -14 56 -7 82 22 15 16 20 35 20 79 l0 58 100 0 100 0 0 -139 c0 -77 3 -147 6 -156 10 -24 58 -45 107 -45 l44 0 6 98 c9 154 53 256 154 357 113 113 295 172 450 145 125 -21 250 -93 332 -192 l38 -47 34 45 c109 146 328 229 509 192 188 -39 333 -159 401 -336 16 -41 24 -86 27 -159 l4 -103 78 0 77 0 6 98 c6 112 31 192 82 269 117 177 336 271 536 230 128 -26 245 -94 317 -186 l39 -49 32 41 c116 151 329 232 511 195 188 -39 333 -159 401 -336 16 -41 24 -86 27 -159 l4 -103 28 0 c16 0 42 11 59 26 l31 26 0 144 0 144 60 0 60 0 0 -59 c0 -76 21 -105 75 -105 27 0 43 6 56 23 17 21 19 43 19 241 l0 219 -26 20 c-15 12 -37 21 -49 21 -12 0 -34 -9 -49 -21 -24 -19 -26 -26 -26 -100 l0 -79 -70 0 -70 0 0 176 0 176 -29 29 -29 29 -2107 0 -2106 0 -24 -25z" fill="#f8cf47"/>
<path d="M993 1626 c-59 -19 -103 -49 -157 -106 -62 -66 -87 -127 -93 -221 -12 -178 89 -327 256 -379 80 -25 142 -25 222 0 200 63 303 267 239 471 -34 108 -128 203 -234 234 -60 18 -176 18 -233 1z" fill="#f8cf47"/>
<path d="M1888 1627 c-240 -89 -330 -354 -192 -564 70 -107 204 -171 335 -160 135 11 249 92 307 215 24 50 27 70 27 157 0 87 -3 107 -27 157 -34 73 -103 142 -176 176 -46 22 -74 27 -147 29 -57 2 -103 -2 -127 -10z" fill="#f8cf47"/>
<path d="M3098 1627 c-240 -89 -330 -354 -192 -564 70 -107 204 -171 335 -160 135 11 249 92 307 215 24 50 27 70 27 157 0 87 -3 107 -27 157 -34 73 -103 142 -176 176 -46 22 -74 27 -147 29 -57 2 -103 -2 -127 -10z" fill="#f8cf47"/>
<path d="M3966 1616 c-76 -32 -122 -69 -168 -137 -130 -188 -58 -443 152 -543 58 -28 75 -31 155 -31 76 0 99 5 147 27 201 93 280 326 176 520 -38 71 -92 122 -167 157 -83 38 -212 41 -295 7z" fill="#f8cf47"/>
</g>
</svg>