<svg xmlns="http://www.w3.org/2000/svg" version="1.0" width="512.000000pt" height="512.000000pt" viewBox="0 0 512.000000 512.000000" preserveAspectRatio="xMidYMid meet">

<g transform="translate(0.000000,512.000000) scale(0.100000,-0.100000)" fill="#f8cf47" stroke="none">
<path d="M1372 4229 c-47 -14 -109 -80 -123 -131 -23 -89 12 -182 88 -229 36 -23 49 -24 221 -27 l182 -4 0 -199 0 -199 -400 0 -401 0 -322 224 c-177 123 -339 229 -361 236 -82 26 -180 -11 -227 -87 l-24 -38 0 -425 c0 -412 1 -427 23 -503 41 -142 122 -278 223 -372 30 -28 161 -126 292 -219 l237 -169 0 -332 c0 -298 2 -340 20 -409 29 -113 73 -190 160 -276 86 -87 163 -131 276 -160 74 -19 113 -20 925 -20 916 0 920 0 1064 55 138 51 291 168 362 276 24 36 28 53 28 109 0 55 -4 73 -27 107 -49 75 -138 107 -226 83 -33 -8 -60 -29 -115 -85 -54 -54 -91 -83 -142 -107 l-70 -33 -861 0 -860 0 -41 27 c-22 15 -51 44 -64 65 l-24 38 -3 808 -2 807 793 0 794 0 58 -137 c68 -164 100 -218 168 -279 148 -133 362 -162 537 -71 25 13 267 185 539 382 453 327 497 357 520 348 14 -5 25 -15 24 -21 -2 -7 -198 -273 -437 -591 -382 -509 -435 -585 -441 -624 -13 -86 22 -165 92 -208 53 -33 152 -34 204 -1 26 16 190 226 552 710 551 735 547 728 533 824 -13 88 -41 113 -267 230 -112 58 -221 111 -243 118 -46 15 -119 7 -155 -17 -14 -9 -246 -176 -516 -372 -623 -451 -594 -431 -625 -431 -14 0 -35 8 -46 19 -11 10 -58 110 -105 222 -92 222 -121 264 -195 287 -30 9 -153 12 -433 12 l-391 0 0 199 0 199 183 4 c171 3 184 4 220 27 21 13 50 42 65 64 23 34 27 52 27 107 0 55 -4 73 -27 107 -15 22 -44 51 -65 64 l-38 24 -550 2 c-330 1 -563 -2 -583 -8z m-773 -1039 l181 -125 0 -243 0 -244 -67 48 c-201 142 -247 188 -285 284 -19 47 -22 80 -26 234 -3 117 -1 177 6 175 6 -2 92 -60 191 -129z" fill="#f8cf47"/>
<path d="M4657 1934 c-65 -35 -304 -454 -329 -576 -34 -165 63 -348 227 -429 64 -31 77 -34 165 -34 86 0 101 3 162 32 91 43 151 101 193 187 42 84 53 165 35 249 -25 124 -264 538 -329 571 -38 20 -88 20 -124 0z" fill="#f8cf47"/>
</g>
</svg>