<?xml version="1.0" encoding="UTF-8"?>
<svg version="1.1" xmlns="http://www.w3.org/2000/svg" width="512" height="512">
<path d="M0 0 C16.99613105 8.66252518 34.32733804 15.56950345 53.625 15.9375 C54.72714844 15.97121704 54.72714844 15.97121704 55.8515625 16.00561523 C68.81552336 15.95056357 79.79719414 10.50261741 90.6875 4 C107.38218383 -5.93386733 122.48860818 -10.53166677 141.6875 -6 C154.36732082 -2.17187613 170.60226376 4.97726376 180.125 14.5 C180.22577849 16.15476123 180.25607584 17.81384593 180.25922108 19.47167015 C180.26367892 20.55514713 180.26813676 21.6386241 180.27272969 22.75493371 C180.27245315 24.56262229 180.27245315 24.56262229 180.27217102 26.40682983 C180.27584771 27.67555235 180.2795244 28.94427486 180.2833125 30.25144351 C180.29336144 33.78928334 180.29705392 37.3271062 180.29970181 40.86495829 C180.30359629 44.67417534 180.31317515 48.48337884 180.32191467 52.29258728 C180.34170281 61.49952777 180.35174801 70.70646941 180.36064246 79.91342586 C180.36502129 84.24450658 180.37038913 88.57558606 180.37563133 92.9066658 C180.39264554 107.29603764 180.40714119 121.68540869 180.41438007 136.07478905 C180.4162901 139.8112526 180.41821042 143.54771615 180.42016602 147.28417969 C180.42064976 148.21290845 180.4211335 149.14163721 180.4216319 150.09850927 C180.4299377 165.15376384 180.45528302 180.2089391 180.48774669 195.26415901 C180.52077341 210.70582622 180.53882483 226.14745306 180.54202431 241.58915579 C180.54419343 250.26530156 180.55300058 258.94133164 180.57848549 267.61744308 C180.60013263 275.00427198 180.60827258 282.39095712 180.59851871 289.77781413 C180.59395657 293.54935139 180.59597023 297.32059168 180.61528015 301.0920887 C180.63600307 305.17467186 180.62598287 309.25658894 180.61274719 313.33920288 C180.62920106 315.14019929 180.62920106 315.14019929 180.64598733 316.97757947 C180.63740644 318.06627195 180.62882555 319.15496442 180.61998463 320.27664757 C180.62096144 321.21971052 180.62193824 322.16277346 180.62294465 323.13441408 C180.125 325.5 180.125 325.5 178.26422948 327.32597125 C176.125 328.5 176.125 328.5 173.40234375 328.5078125 C168.99145715 327.15142544 165.53435494 324.88142832 161.6875 322.375 C148.02131739 313.7804431 132.64543772 304.57499412 115.84765625 306.87109375 C109.18595362 308.40988015 103.1673194 311.51108821 97.04296875 314.46875 C62.29940876 331.21372332 28.73533093 327.41081155 -7.35327148 317.15771484 C-22.44367624 313.22184976 -35.82758876 318.97961779 -49.75024414 324.42651367 C-82.92271899 337.27662754 -133.11232641 348.67327895 -167.33984375 335.12890625 C-183.10129964 327.99261189 -193.75031208 316.046236 -200.83203125 300.3359375 C-203.50636941 293.06414161 -204.16721904 286.62974859 -204.14242554 278.94465637 C-204.14695665 277.90568748 -204.15148776 276.86671858 -204.15615618 275.79626578 C-204.16877971 272.32742903 -204.16718111 268.8587497 -204.16552734 265.38989258 C-204.1715139 262.89751993 -204.17831974 260.40514913 -204.18588257 257.91278076 C-204.20170506 251.85218975 -204.20799046 245.79166023 -204.20910732 239.73105428 C-204.21005967 234.80095429 -204.21417924 229.87086706 -204.22050858 224.9407711 C-204.23811181 210.94281368 -204.24734902 196.94488686 -204.24584763 182.94691829 C-204.24576772 182.19317304 -204.2456878 181.4394278 -204.24560547 180.6628418 C-204.24552371 179.90816908 -204.24544195 179.15349636 -204.24535771 178.37595477 C-204.24454533 166.15375791 -204.26367322 153.93168443 -204.2918822 141.70952324 C-204.32066225 129.14007049 -204.33441965 116.57067782 -204.33269465 104.00119132 C-204.33203246 96.95238416 -204.33744938 89.90370632 -204.35905075 82.85492897 C-204.37924836 76.22202779 -204.37853667 69.5893521 -204.36401749 62.9564209 C-204.36193198 60.52852161 -204.36661474 58.10060513 -204.3787384 55.67273521 C-204.47952509 34.08274503 -201.52185902 17.25065864 -185.796875 1.23046875 C-173.26720625 -10.4784062 -157.0478227 -16.01990589 -140.0859375 -15.8359375 C-134.91779288 -15.54083115 -129.88784011 -14.47092364 -124.8125 -13.5 C-106.84454384 -10.17141168 -91.33362593 -11.3756056 -73.41064453 -14.70068359 C-45.82327442 -19.71557293 -24.47277001 -12.49885892 0 0 Z M-76.3125 -1.0625 C-78.89430091 -0.60416936 -81.47632621 -0.14710052 -84.05859375 0.30859375 C-85.24179199 0.51983887 -86.42499023 0.73108398 -87.64404297 0.94873047 C-91.38109543 1.58635057 -95.10738476 2.08560995 -98.875 2.5 C-98.51148438 2.96148437 -98.14796875 3.42296875 -97.7734375 3.8984375 C-86.98287412 17.89850178 -81.717962 31.68749482 -81.73455811 49.4284668 C-81.73158698 50.42418575 -81.72861586 51.41990471 -81.7255547 52.44579697 C-81.71688747 55.78027943 -81.71536111 59.11472592 -81.71386719 62.44921875 C-81.70923753 64.8411517 -81.70421267 67.23308391 -81.69882202 69.62501526 C-81.68570824 76.12332532 -81.67921765 82.6216285 -81.67481136 89.11994934 C-81.67204375 93.18287282 -81.66780538 97.24579394 -81.66330719 101.30871582 C-81.65111645 112.57231496 -81.64081771 123.83591222 -81.6374321 135.09951782 C-81.63721253 135.81984998 -81.63699297 136.54018214 -81.63676675 137.28234255 C-81.63654847 138.00433978 -81.63633019 138.72633701 -81.6361053 139.47021294 C-81.63566184 140.9331042 -81.63521528 142.39599546 -81.63476562 143.85888672 C-81.6345442 144.58452198 -81.63432277 145.31015725 -81.63409463 146.05778146 C-81.63015135 157.80088268 -81.61271086 169.54392166 -81.5894061 181.28699887 C-81.56563635 193.3625714 -81.55322765 205.43811278 -81.55206418 217.51370907 C-81.55115042 224.2858971 -81.54547405 231.05800409 -81.52724457 237.83016968 C-81.51071363 244.20612595 -81.50863282 250.58192897 -81.51738358 256.95789909 C-81.51815132 259.29023589 -81.51384611 261.6225811 -81.50392532 263.95489693 C-81.4162421 285.86446769 -83.19716841 304.23687605 -99.15234375 320.8046875 C-99.72082031 321.36414063 -100.28929687 321.92359375 -100.875 322.5 C-95.74037429 324.15800225 -91.08152523 322.59886848 -85.9375 321.5 C-84.87152588 321.2743335 -83.80555176 321.04866699 -82.70727539 320.81616211 C-70.058636 318.02650371 -57.83004039 314.05577108 -45.89819336 309.0234375 C-28.08575445 301.51847587 -12.93455789 301.79274957 5.625 306.875 C35.53838874 314.68428268 62.45090627 316.73466378 90.88037109 302.72583008 C108.02988994 294.28531347 122.88315859 290.84409599 141.6796875 297.125 C149.37461299 300.19599067 156.90573297 303.90932368 163.96875 308.24609375 C165.99743114 309.66756737 165.99743114 309.66756737 168.125 309.5 C168.125 214.46 168.125 119.42 168.125 21.5 C148.12358352 9.69985257 148.12358352 9.69985257 126 5.1875 C124.96617187 5.15011719 123.93234375 5.11273438 122.8671875 5.07421875 C113.04552133 6.19171521 104.53895373 11.21674204 96.0625 16 C75.38874127 27.62157757 54.87610228 32.58358318 31.3203125 26.39794922 C29.24188957 25.80178561 27.18338998 25.16190042 25.125 24.5 C24.41021484 24.2745752 23.69542969 24.04915039 22.95898438 23.81689453 C11.55808783 20.13087157 0.88434446 15.10482798 -9.86791992 9.85375977 C-32.60745729 -1.23925464 -51.05241255 -5.71938763 -76.3125 -1.0625 Z M-179.875 14.5 C-182.17526999 17.36299698 -184.08932346 20.2936437 -185.875 23.5 C-186.26429688 24.18449219 -186.65359375 24.86898437 -187.0546875 25.57421875 C-193.22511934 37.75744366 -192.15760136 52.6058962 -192.10205078 65.89794922 C-192.10148544 67.81131993 -192.10180562 69.72469107 -192.10293579 71.63806152 C-192.10350551 76.78999954 -192.09181338 81.94184289 -192.07778788 87.09375906 C-192.06521652 92.49358219 -192.064105 97.8934079 -192.06173706 103.29324341 C-192.05554101 113.49967969 -192.03915576 123.70607271 -192.01903808 133.91249001 C-191.99662047 145.5401569 -191.98567095 157.16782595 -191.97564721 168.7955091 C-191.95478773 192.69702997 -191.9196485 216.59851255 -191.875 240.5 C-188.51556729 237.15207201 -188.51556729 237.15207201 -185.19921875 233.76171875 C-173.80186004 222.79958138 -158.11955559 217.50410105 -142.51171875 217.4140625 C-125.54865343 217.7681267 -111.25782871 223.81639078 -98.96875 235.546875 C-96.83264968 237.64519322 -96.83264968 237.64519322 -93.875 239.5 C-93.80482332 213.90854597 -93.75196942 188.31710642 -93.71956348 162.72557545 C-93.70411486 150.842164 -93.6830637 138.95881245 -93.64868164 127.07543945 C-93.61871788 116.7141844 -93.59941043 106.35297274 -93.59273452 95.99167556 C-93.58883408 90.50882352 -93.57970937 85.0260956 -93.55780983 79.54328346 C-93.53733439 74.37477164 -93.53118844 69.20643419 -93.53567696 64.03788567 C-93.53485668 62.1485817 -93.52895732 60.25927144 -93.51738358 58.37000275 C-93.41341742 40.51160335 -95.23028364 25.3988556 -107.875 11.75 C-118.11028667 2.00277196 -130.82949078 -3.06631026 -144.984375 -2.75 C-159.03410203 -1.53488847 -170.25928195 4.31865148 -179.875 14.5 Z M-180.875 247.5 C-183.26827316 250.68073723 -185.13382104 253.92514195 -186.875 257.5 C-187.2875 258.29535156 -187.7 259.09070313 -188.125 259.91015625 C-192.69191599 270.16985989 -192.49563839 283.39691941 -189.3125 294.0625 C-184.3163713 306.65837377 -175.0050738 316.60485209 -162.875 322.5 C-150.476605 327.64740564 -138.62904065 328.15105786 -125.91796875 323.76953125 C-112.91856172 318.34615861 -103.57925342 309.70912156 -97.5625 296.9375 C-92.28366598 284.02361419 -92.96271615 271.8407032 -97.87109375 258.8671875 C-103.48415106 246.47573227 -113.96303594 236.9289972 -126.625 232.125 C-146.78144842 225.51910514 -166.64045452 232.0396325 -180.875 247.5 Z " fill="#000000" transform="translate(267.875,94.5)"/>
<path d="M0 0 C9.19473316 6.5794155 16.27934605 15.98783249 18.3125 27.3125 C19.14481002 40.19283866 18.57447421 52.14616366 9.92578125 62.51171875 C9.39339844 63.10597656 8.86101562 63.70023437 8.3125 64.3125 C7.81105469 64.91707031 7.30960937 65.52164063 6.79296875 66.14453125 C-1.39009104 75.28327686 -12.70856347 78.66903738 -24.5625 79.625 C-37.09900366 79.24433693 -47.39027519 74.22498323 -56.35546875 65.796875 C-65.07524253 56.50746776 -68.38959882 45.23153361 -68.03125 32.64453125 C-66.82714085 20.9728823 -62.0353963 11.11908139 -53.5 3.0625 C-37.71684284 -9.52815491 -17.00123298 -10.34481803 0 0 Z M-47.6875 16.0625 C-52.95275307 22.84682364 -55.44246417 29.98122274 -55.06640625 38.58203125 C-53.77486178 47.88914036 -49.05665036 55.0838906 -41.73828125 60.84765625 C-34.62083498 65.64389215 -27.99750896 66.91325105 -19.5 65.921875 C-12.11916132 64.32269329 -4.39720513 60.27743619 -0.09375 53.98046875 C5.10423287 45.60730295 6.12765243 39.21077954 5.3125 29.3125 C3.26229508 21.18578411 -2.24980884 14.97846457 -8.75 9.9375 C-21.95555647 2.63229855 -37.30050515 5.21239073 -47.6875 16.0625 Z " fill="#000000" transform="translate(149.6875,336.6875)"/>
<path d="M0 0 C6.55544467 4.32093992 9.55997739 9.67993217 12 17 C12.8968503 25.41758071 11.99671203 32.04544168 7 39 C2.2246795 44.18930997 -2.2669534 47.5946978 -9.41796875 48.37109375 C-18.64251332 48.53359868 -25.61178168 47.6201106 -32.8359375 41.42578125 C-37.71354223 36.32214118 -40.04021745 30.01648418 -40.375 23 C-40.06807077 15.99643305 -37.41781962 9.39955731 -33 4 C-23.95282601 -3.94386009 -10.74384567 -6.14928532 0 0 Z M-25.9375 16.75 C-27.27767451 20.84935732 -27.26411678 23.88525746 -26 28 C-23.88988018 31.23551706 -22.21908826 32.85394116 -19 35 C-14.95742659 35.66100598 -10.79827957 35.91928345 -7.08203125 34.01953125 C-2.84477705 30.61926553 -1.21212478 27.90912306 -0.625 22.625 C-1.16881941 17.368079 -3.23244031 14.47296641 -7.25 11.125 C-14.99591262 7.95621756 -21.14829497 9.95241866 -25.9375 16.75 Z " fill="#000000" transform="translate(139,350)"/>
<path d="M0 0 C2 3 2 3 1.8125 6.5625 C1 10 1 10 -2 12 C-4.3828125 11.9765625 -4.3828125 11.9765625 -7.125 11.625 C-24.37191246 9.76659419 -36.33715306 15.42403198 -50.96240234 24.17407227 C-55.68434215 26.99392966 -55.68434215 26.99392966 -59.25 27.0625 C-62 26 -62 26 -64 23.8125 C-65 21 -65 21 -64.67578125 18.203125 C-62.09863799 13.27711691 -57.98004896 11.51434829 -53.1875 8.9375 C-52.23931396 8.41309326 -51.29112793 7.88868652 -50.31420898 7.34838867 C-34.34488012 -1.33139207 -17.87462009 -6.97196257 0 0 Z " fill="#000000" transform="translate(411,117)"/>
<path d="M0 0 C1.875 1.6875 1.875 1.6875 3 4 C3 7.0625 3 7.0625 2 10 C-1.98471449 13.08664437 -6.11545617 13.78921522 -11 14.375 C-11.69867188 14.48199219 -12.39734375 14.58898437 -13.1171875 14.69921875 C-16.54709806 15.13281122 -18.74495768 15.11090271 -21.9375 13.72265625 C-24 12 -24 12 -25 9.0625 C-25 6 -25 6 -24.0234375 3.921875 C-21.01205885 1.06164663 -17.58817944 0.77996855 -13.625 0.1875 C-12.86960937 0.05408203 -12.11421875 -0.07933594 -11.3359375 -0.21679688 C-7.32905781 -0.87176759 -3.94279296 -1.2895601 0 0 Z " fill="#000000" transform="translate(333,140)"/>
</svg>
