<?xml version="1.0" encoding="UTF-8"?>
<svg version="1.1" xmlns="http://www.w3.org/2000/svg" width="512" height="512">
<path d="M0 0 C1.36410107 -0.00299584 2.72820129 -0.00639934 4.09230042 -0.01017761 C7.78252686 -0.01897876 11.47273009 -0.02135409 15.16296601 -0.0219934 C17.47287564 -0.02270613 19.78277943 -0.02484466 22.09268761 -0.02749062 C30.16368354 -0.03673129 38.23466301 -0.04082712 46.30566406 -0.04003906 C53.808845 -0.03943866 61.31195397 -0.04998636 68.8151167 -0.06578273 C75.27396283 -0.07889212 81.73278553 -0.08422153 88.19164485 -0.08358365 C92.04168177 -0.08332966 95.89165466 -0.08612614 99.74167824 -0.0967617 C103.36556743 -0.10650007 106.98933215 -0.10648289 110.61322594 -0.09924507 C112.56263208 -0.09771442 114.51203836 -0.10600577 116.46142578 -0.11468506 C127.86736156 -0.07419625 137.59433744 0.71345725 146.23510742 8.74682617 C152.88451725 15.90270211 154.17264358 23.02265974 153.91479492 32.67651367 C152.91635527 41.28442055 148.5202469 46.74041825 142.28198242 52.45385742 C132.30478997 58.54712164 121.14942369 57.4986571 109.88745117 57.33276367 C108.10230621 57.31769027 106.31714894 57.30400656 104.53198242 57.29174805 C100.19158178 57.26152242 95.85291534 57.20276737 91.51245117 57.14526367 C91.51245117 66.05526367 91.51245117 74.96526367 91.51245117 84.14526367 C94.77120117 84.04213867 98.02995117 83.93901367 101.38745117 83.83276367 C110.8026834 83.73696916 117.40425925 84.45866917 124.54760742 91.01245117 C130.92061441 97.73878709 133.48420291 104.95045418 133.51245117 114.14526367 C132.9675855 121.19298263 130.19565031 126.87913469 125.51245117 132.14526367 C121.77852114 135.18465723 118.08907825 137.61972131 113.51245117 139.14526367 C113.18245117 146.07526367 112.85245117 153.00526367 112.51245117 160.14526367 C121.42245117 159.81526367 130.33245117 159.48526367 139.51245117 159.14526367 C141.16245117 155.84526367 142.81245117 152.54526367 144.51245117 149.14526367 C150.94351107 142.46685532 157.59803313 138.97494351 166.94995117 138.64526367 C174.9784094 138.93567465 181.43015518 140.87971633 187.38745117 146.39526367 C190.73245686 150.05658196 194.51245117 154.99169379 194.51245117 160.14526367 C195.76890442 160.13416061 197.02535767 160.12305756 198.31988525 160.11161804 C210.15034004 160.01033897 221.98070708 159.93534464 233.81149673 159.88620281 C239.89412732 159.86008921 245.97640845 159.82465805 252.05883789 159.76806641 C257.92678012 159.71381093 263.79438585 159.68385642 269.66255951 159.67087746 C271.90334116 159.66162606 274.14410402 159.64356049 276.38474274 159.61661339 C279.51919104 159.58041 282.65224211 159.57531481 285.78686523 159.57763672 C287.18193047 159.55067215 287.18193047 159.55067215 288.60517883 159.52316284 C289.46050705 159.53003616 290.31583527 159.53690948 291.19708252 159.54399109 C292.30876486 159.53707764 292.30876486 159.53707764 293.44290543 159.53002453 C296.691887 160.49588897 297.7578801 162.32177212 299.51245117 165.14526367 C300.01302242 167.96420288 300.01302242 167.96420288 300.01365662 171.10375977 C300.02349075 172.29821716 300.03332489 173.49267456 300.04345703 174.72332764 C300.03378906 176.0253009 300.02412109 177.32727417 300.01416016 178.66870117 C300.01794516 180.06032863 300.02344669 181.45195233 300.03053284 182.84356689 C300.04448142 186.61637406 300.03332222 190.38872488 300.01682162 194.16150665 C300.00295854 198.11231331 300.00943263 202.06309381 300.01295471 206.01391602 C300.01565585 212.64826806 300.00218965 219.28243908 299.97900391 225.91674805 C299.95239469 233.58364217 299.95064738 241.25023365 299.96239227 248.91715813 C299.97317679 256.29671978 299.96697771 263.67617211 299.95283699 271.0557251 C299.94708302 274.19438261 299.94715522 277.33295998 299.95190239 280.47161865 C299.95667974 284.16860606 299.94653948 287.86526269 299.92494774 291.56218719 C299.91674162 293.56384196 299.92322441 295.56554008 299.93014526 297.56719971 C299.92024063 298.7616571 299.910336 299.9561145 299.90013123 301.18676758 C299.89648638 302.74084824 299.89648638 302.74084824 299.89276791 304.32632446 C299.44799828 307.62299385 298.51717014 309.50557018 296.51245117 312.14526367 C293.7979798 313.05008746 292.185674 313.27870783 289.39326477 313.30348206 C288.1375769 313.31816528 288.1375769 313.31816528 286.85652161 313.33314514 C285.94158432 313.3389006 285.02664703 313.34465607 284.08398438 313.35058594 C283.11794281 313.36048553 282.15190125 313.37038513 281.15658569 313.38058472 C277.95882632 313.41220897 274.76105209 313.43696089 271.56323242 313.46166992 C269.34791169 313.48223864 267.13259489 313.50323509 264.9172821 313.52464294 C259.08282656 313.57987204 253.24833554 313.62927767 247.41381836 313.67749023 C241.46163776 313.7276991 235.50950875 313.78338838 229.55737305 313.83862305 C217.87577648 313.94621489 206.19413514 314.04765763 194.51245117 314.14526367 C194.10978027 314.96474487 194.10978027 314.96474487 193.69897461 315.80078125 C193.34351563 316.51903076 192.98805664 317.23728027 192.62182617 317.97729492 C192.27087891 318.68861572 191.91993164 319.39993652 191.55834961 320.1328125 C188.55611508 325.90952101 184.39202729 329.50232717 178.51245117 332.14526367 C170.13074069 334.59281549 162.33639297 334.82843686 154.32495117 331.13745117 C148.24898918 327.66218503 143.26587365 322.64282607 140.51245117 316.14526367 C140.51245117 315.15526367 140.51245117 314.16526367 140.51245117 313.14526367 C85.07245117 313.14526367 29.63245117 313.14526367 -27.48754883 313.14526367 C-27.81754883 314.79526367 -28.14754883 316.44526367 -28.48754883 318.14526367 C-32.57916822 325.54165257 -38.45277122 330.51318135 -46.48754883 333.14526367 C-54.0341237 334.83795336 -61.26800442 334.37190372 -68.16723633 330.73120117 C-74.80024354 326.42073061 -78.9801652 321.66741455 -81.48754883 314.14526367 C-83.33131355 314.13646431 -83.33131355 314.13646431 -85.21232605 314.12748718 C-96.79250389 314.07029031 -108.37249339 313.99754442 -119.95247936 313.90954876 C-125.90596859 313.86480898 -131.85938881 313.82556065 -137.81298828 313.79882812 C-143.5578498 313.77283139 -149.30244628 313.73245433 -155.04714394 313.68207741 C-157.23956317 313.66538419 -159.43202827 313.65388524 -161.62450218 313.64764977 C-164.69396162 313.63803557 -167.76273922 313.61000768 -170.83203125 313.57763672 C-171.73977798 313.57907181 -172.64752472 313.5805069 -173.58277893 313.58198547 C-178.31656762 313.51131666 -181.71397226 313.34375243 -185.48754883 310.14526367 C-186.54077018 306.98559961 -186.62105573 304.7458725 -186.63471985 301.42727661 C-186.64187515 300.23556854 -186.64903046 299.04386047 -186.65640259 297.81604004 C-186.65909149 296.50687622 -186.6617804 295.1977124 -186.66455078 293.84887695 C-186.67081657 292.45754832 -186.67746347 291.06622137 -186.6844635 289.67489624 C-186.70548849 285.10513471 -186.71586278 280.53537289 -186.72583008 275.96557617 C-186.72987788 274.39221046 -186.73399481 272.81884493 -186.73818016 271.24547958 C-186.75722652 263.85527498 -186.77146006 256.46508035 -186.77979213 249.07485592 C-186.7895701 240.54314263 -186.81590634 232.0116884 -186.85629302 223.48006642 C-186.88643965 216.88550028 -186.90125952 210.29100849 -186.90457314 203.69637477 C-186.90692485 199.75747931 -186.91590094 195.81886079 -186.94103432 191.88003922 C-186.96429562 188.17486657 -186.96855643 184.47015362 -186.95827293 180.76492691 C-186.95754069 178.7584261 -186.97664449 176.75194873 -186.99633789 174.74554443 C-186.98939407 173.54819672 -186.98245026 172.350849 -186.97529602 171.11721802 C-186.97768437 170.07856661 -186.98007273 169.0399152 -186.98253345 167.96978951 C-186.34816019 164.34987165 -185.11446653 162.68432056 -182.48754883 160.14526367 C-180.41800308 159.53002453 -180.41800308 159.53002453 -178.17218018 159.54399109 C-177.31685196 159.53711777 -176.46152374 159.53024445 -175.58027649 159.52316284 C-174.650233 159.54113922 -173.72018951 159.5591156 -172.76196289 159.57763672 C-171.77626816 159.57690659 -170.79057343 159.57617645 -169.77500916 159.57542419 C-166.5171708 159.57890745 -163.26076239 159.61780495 -160.00317383 159.65698242 C-157.74445375 159.66630788 -155.48572355 159.67342525 -153.22698975 159.67842102 C-147.28208493 159.69751159 -141.33779093 159.74663106 -135.39312744 159.80194092 C-129.32702905 159.85308846 -123.26083195 159.87592551 -117.19458008 159.90112305 C-105.29196796 159.95474704 -93.38980919 160.04008548 -81.48754883 160.14526367 C-81.19259521 159.04206787 -80.8976416 157.93887207 -80.59375 156.80224609 C-78.61132612 150.24856537 -73.59899352 145.1266833 -67.73754883 141.64526367 C-60.64734576 138.37286225 -52.46809861 137.83852272 -44.88208008 139.82885742 C-35.0124694 143.92279232 -31.40411014 149.31214105 -26.48754883 159.14526367 C-13.12254883 159.64026367 -13.12254883 159.64026367 0.51245117 160.14526367 C0.18245117 153.21526367 -0.14754883 146.28526367 -0.48754883 139.14526367 C-4.44754883 137.16526367 -4.44754883 137.16526367 -8.48754883 135.14526367 C-14.44644754 131.26505055 -18.06068732 125.60282577 -19.86254883 118.77026367 C-21.46408626 109.70525082 -19.66102733 101.75858018 -14.48754883 94.14526367 C-9.75124715 88.86284755 -4.20398844 84.58441499 3.04272461 83.90966797 C5.85308711 83.85097305 8.63973194 83.88343549 11.44995117 83.95776367 C16.43088867 84.05057617 16.43088867 84.05057617 21.51245117 84.14526367 C21.51245117 75.23526367 21.51245117 66.32526367 21.51245117 57.14526367 C17.57178711 57.1974707 17.57178711 57.1974707 13.55151367 57.25073242 C10.97649215 57.27420115 8.40148303 57.29237593 5.82641602 57.31005859 C4.05162122 57.3250446 2.27686281 57.34544049 0.50219727 57.37158203 C-23.55905069 57.71686162 -23.55905069 57.71686162 -31.86254883 50.02026367 C-38.61322881 43.39695501 -40.66084516 38.15307222 -41.05004883 28.70776367 C-40.80130023 20.6916395 -39.02851954 15.04922093 -33.62036133 9.08666992 C-23.70652322 -0.19067663 -12.91752956 -0.00461593 0 0 Z M-24.48754883 21.33276367 C-25.91975173 25.36083433 -26.15048589 28.92183317 -25.48754883 33.14526367 C-23.06233141 38.18225369 -20.561971 40.01289761 -15.48754883 42.14526367 C-12.49081282 42.58901898 -12.49081282 42.58901898 -9.33959961 42.5262146 C-8.1283844 42.53467407 -6.91716919 42.54313354 -5.66925049 42.55184937 C-4.35374207 42.54577667 -3.03823364 42.53970398 -1.68286133 42.53344727 C-0.27300612 42.53751569 1.13684589 42.54285909 2.54669189 42.54937744 C6.36487941 42.5630248 10.18282306 42.55776316 14.00101471 42.54824018 C18.00206649 42.54063017 22.00309777 42.54769292 26.00415039 42.55239868 C32.72245013 42.55785233 39.44065085 42.5506749 46.15893555 42.53637695 C53.91954675 42.52005115 61.67992149 42.52533994 69.44052696 42.54185617 C76.11077075 42.5554822 82.78094346 42.55738525 89.45119667 42.54954016 C93.43192036 42.54486977 97.41253301 42.54422129 101.39324951 42.55414963 C105.13619778 42.56283332 108.87884199 42.55677204 112.62175751 42.53946686 C114.64588506 42.53362583 116.67003842 42.54250558 118.69415283 42.55184937 C119.90536804 42.54338989 121.11658325 42.53493042 122.36450195 42.5262146 C123.4130838 42.52508352 124.46166565 42.52395245 125.54202271 42.52278709 C130.41053968 41.90402815 133.61536976 40.13677471 136.88745117 36.52026367 C138.96966775 32.19566001 139.33206989 28.8601837 138.51245117 24.14526367 C136.47173946 19.73732638 134.33973729 17.55926737 129.82592583 15.7476635 C124.61465355 14.39071346 119.15779988 14.7225485 113.80957031 14.74121094 C112.42251538 14.735502 111.03546514 14.72853572 109.64842224 14.72041321 C105.89628495 14.70252437 102.14438208 14.70364204 98.39221501 14.70935559 C95.25363127 14.71245364 92.11509214 14.70634816 88.97651476 14.70031685 C81.56926609 14.68628729 74.16213279 14.68781981 66.75488281 14.69921875 C59.12659129 14.71069882 51.4986514 14.69662279 43.87040621 14.66982228 C37.30796118 14.647634 30.74562628 14.64103491 24.18314642 14.64689869 C20.26939719 14.65026197 16.35587333 14.64789527 12.44215584 14.63064766 C8.76067876 14.61513043 5.07972085 14.61918626 1.39826393 14.6379528 C-0.58731275 14.6433693 -2.57291302 14.62916103 -4.55844116 14.61425781 C-12.4664357 14.67929828 -18.85750217 15.17490014 -24.48754883 21.33276367 Z M36.51245117 57.14526367 C36.51245117 66.05526367 36.51245117 74.96526367 36.51245117 84.14526367 C49.71245117 84.14526367 62.91245117 84.14526367 76.51245117 84.14526367 C76.51245117 75.23526367 76.51245117 66.32526367 76.51245117 57.14526367 C63.31245117 57.14526367 50.11245117 57.14526367 36.51245117 57.14526367 Z M-2.86254883 103.33276367 C-4.95285136 106.95059497 -5.69256776 109.97107825 -5.48754883 114.14526367 C-3.63099853 119.5086312 -0.54255994 122.61775812 4.51245117 125.14526367 C5.89249971 125.24519751 7.27718759 125.28462669 8.66082764 125.29243469 C9.52997803 125.29959 10.39912842 125.3067453 11.2946167 125.31411743 C12.25047668 125.31680634 13.20633667 125.31949524 14.19116211 125.32226562 C15.19618774 125.32883682 16.20121338 125.33540802 17.23669434 125.34217834 C20.57340565 125.361941 23.91007188 125.3735808 27.24682617 125.38354492 C28.3848896 125.38762045 29.52295303 125.39169598 30.69550323 125.395895 C36.71944498 125.41676877 42.74336387 125.43106463 48.76733398 125.44042969 C54.99289679 125.45149456 61.21810222 125.485892 67.44353867 125.52560139 C72.22707793 125.5517353 77.01053166 125.5601187 81.79413605 125.56371117 C84.08905703 125.56858574 86.38397398 125.58022436 88.67882538 125.59874916 C91.89155959 125.62307042 95.10336421 125.622188 98.31616211 125.61523438 C99.26392517 125.62804443 100.21168823 125.64085449 101.18817139 125.65405273 C108.03751061 125.60003302 111.35772522 124.19120597 116.32495117 119.39526367 C118.07182188 116.08540339 118.62671257 112.84447659 118.51245117 109.14526367 C116.88184434 104.43462171 114.65843998 101.87554899 110.51245117 99.14526367 C107.722215 98.26703698 105.19824433 98.01679215 102.28215027 98.00482178 C101.44535233 97.99911163 100.60855438 97.99340149 99.74639893 97.98751831 C98.83670349 97.98640045 97.92700806 97.98528259 96.98974609 97.98413086 C96.02504898 97.97916595 95.06035187 97.97420105 94.06642151 97.96908569 C90.87524705 97.95448172 87.6841223 97.94766505 84.49291992 97.94213867 C82.27338154 97.93638585 80.05384317 97.93062813 77.83430481 97.92486572 C73.17973601 97.91436081 68.52518446 97.90851478 63.87060547 97.9050293 C57.91205857 97.89954513 51.95374024 97.87551642 45.99526501 97.84705734 C41.40984942 97.82841624 36.82448874 97.82322457 32.23903847 97.82169342 C30.04264387 97.81866979 27.84625017 97.81065108 25.64989281 97.79750824 C22.57419914 97.78041701 19.49906198 97.78233566 16.42333984 97.78881836 C15.5197171 97.77960358 14.61609436 97.77038879 13.68508911 97.76089478 C7.11203865 97.80420267 2.13848181 98.72655124 -2.86254883 103.33276367 Z M15.51245117 140.14526367 C15.18245117 150.04526367 14.85245117 159.94526367 14.51245117 170.14526367 C4.80277673 179.85493811 -12.76074777 173.78403207 -26.48754883 174.14526367 C-26.48754883 215.06526367 -26.48754883 255.98526367 -26.48754883 298.14526367 C28.29245117 298.14526367 83.07245117 298.14526367 139.51245117 298.14526367 C139.51245117 257.22526367 139.51245117 216.30526367 139.51245117 174.14526367 C120.70245117 173.65026367 120.70245117 173.65026367 101.51245117 173.14526367 C93.67734499 165.31015749 97.8815966 151.21962638 97.51245117 140.14526367 C70.45245117 140.14526367 43.39245117 140.14526367 15.51245117 140.14526367 Z M-64.48754883 158.14526367 C-66.98731874 162.35539452 -67.86401092 165.45620431 -67.87522888 170.33117676 C-67.88513351 171.55080612 -67.89503815 172.77043549 -67.90524292 174.02702332 C-67.9010055 175.36526591 -67.8964477 176.70350752 -67.89160156 178.04174805 C-67.89730837 179.46145667 -67.90427384 180.8811607 -67.91239929 182.30085754 C-67.93031011 186.14589023 -67.92916648 189.99069446 -67.92345691 193.8357563 C-67.92036253 197.0490379 -67.92646016 200.26227576 -67.93249565 203.47555113 C-67.94653197 211.05673594 -67.9449866 218.63780804 -67.93359375 226.21899414 C-67.92210862 234.03418559 -67.93619668 241.84903402 -67.96299022 249.66418028 C-67.98515453 256.38113681 -67.99178311 263.09798572 -67.98591381 269.81497622 C-67.98254533 273.82368977 -67.98495211 277.83218337 -68.00216484 281.84086609 C-68.01764411 285.61014291 -68.01366809 289.37891174 -67.9948597 293.14816856 C-67.99117671 294.5292266 -67.99427393 295.91032235 -68.00474548 297.2913456 C-68.25148732 307.07028754 -68.25148732 307.07028754 -63.48754883 315.14526367 C-60.19266904 318.44014346 -57.09729043 318.98900124 -52.48754883 319.14526367 C-48.07877896 317.87494015 -46.00815771 316.78917465 -43.11254883 313.20776367 C-40.7602645 308.77461244 -40.36168993 305.39504048 -40.34710693 300.39640808 C-40.34139679 299.22304398 -40.33568665 298.04967987 -40.32980347 296.84075928 C-40.32868561 295.5570343 -40.32756775 294.27330933 -40.32641602 292.95068359 C-40.32178558 291.58215705 -40.31676061 290.21363179 -40.31137085 288.84510803 C-40.29826683 285.13011782 -40.29180583 281.41514566 -40.28736019 277.70013595 C-40.28442632 275.37770264 -40.28032092 273.05527423 -40.27585602 270.7328434 C-40.26218652 263.4622367 -40.25251711 256.19164125 -40.24865413 248.92102259 C-40.24417418 240.53597659 -40.22662702 232.15109367 -40.19765353 223.76609725 C-40.17601929 217.27933329 -40.16594892 210.79261516 -40.16461301 204.30581552 C-40.16356625 200.43399393 -40.15768607 196.56232574 -40.1397934 192.69054222 C-40.12328241 189.04696212 -40.12117173 185.40365025 -40.1299324 181.76004601 C-40.13106657 179.79212871 -40.11737273 177.8242202 -40.10317993 175.85635376 C-40.14137114 167.75184096 -40.55526902 162.42662441 -46.11254883 156.20776367 C-52.64416618 152.21621973 -58.76828012 152.97068722 -64.48754883 158.14526367 Z M155.51245117 160.14526367 C153.90277611 164.26726938 153.26066744 167.71474994 153.25175476 172.12789917 C153.24466995 173.30256744 153.23758514 174.47723572 153.23028564 175.6875 C153.23276306 176.96246338 153.23524048 178.23742676 153.23779297 179.55102539 C153.2334419 180.91822589 153.22825743 182.28542395 153.2223053 183.65261841 C153.20894569 187.35518913 153.20833329 191.05765759 153.2108686 194.76024771 C153.21194049 197.856522 153.20704929 200.95277579 153.20226318 204.04904568 C153.19117824 211.35701294 153.1907247 218.6649288 153.19677734 225.97290039 C153.2028154 233.4994327 153.19050815 241.02577799 153.16920727 248.5522784 C153.15156424 255.02551901 153.14559422 261.49870024 153.14884502 267.971964 C153.15065391 271.83315629 153.14806137 275.69421518 153.13413048 279.55538559 C153.12151283 283.18834209 153.1235331 286.82100814 153.13654137 290.45396042 C153.14001714 292.41330479 153.12875788 294.3726582 153.11697388 296.33197021 C153.15642407 302.97030729 153.52344752 308.1652645 156.51245117 314.14526367 C160.56589244 317.73808661 164.10169836 319.04864309 169.51245117 319.14526367 C174.86653841 317.25558582 177.98277579 314.20461444 180.51245117 309.14526367 C180.61255985 307.24569193 180.64755315 305.34256897 180.65289307 303.44036865 C180.65860321 302.22623795 180.66431335 301.01210724 180.67019653 299.76118469 C180.67144196 298.40841685 180.67256704 297.05564889 180.67358398 295.70288086 C180.67821136 294.28376638 180.68323591 292.86465315 180.68862915 291.44554138 C180.70176493 287.58381034 180.70820066 283.72209669 180.71263981 279.86034679 C180.71556928 277.44781192 180.7196739 275.03528181 180.72414398 272.62274933 C180.73782344 265.07502506 180.74748729 257.52731168 180.75134587 249.97957587 C180.75582468 241.26622948 180.77336238 232.55304011 180.80234647 223.83974147 C180.82396836 217.10590187 180.83405046 210.37210642 180.83538699 203.63823247 C180.83643487 199.61606773 180.84233868 195.5940505 180.8602066 191.5719223 C180.87669561 187.7863806 180.87883887 184.00109714 180.8700676 180.2155323 C180.8692976 178.82801942 180.87363509 177.4404926 180.88352585 176.05301476 C180.89626126 174.15474994 180.88857105 172.2563812 180.87994385 170.35809326 C180.88214369 168.76636606 180.88214369 168.76636606 180.88438797 167.14248276 C180.27804016 162.25628368 178.51580944 159.05306401 174.88745117 155.77026367 C167.30626068 152.12006084 160.65015705 153.22857377 155.51245117 160.14526367 Z M-171.48754883 174.14526367 C-171.48754883 215.06526367 -171.48754883 255.98526367 -171.48754883 298.14526367 C-142.11754883 298.14526367 -112.74754883 298.14526367 -82.48754883 298.14526367 C-82.48754883 257.22526367 -82.48754883 216.30526367 -82.48754883 174.14526367 C-111.85754883 174.14526367 -141.22754883 174.14526367 -171.48754883 174.14526367 Z M195.51245117 174.14526367 C195.51245117 215.06526367 195.51245117 255.98526367 195.51245117 298.14526367 C224.88245117 298.14526367 254.25245117 298.14526367 284.51245117 298.14526367 C284.51245117 257.22526367 284.51245117 216.30526367 284.51245117 174.14526367 C255.14245117 174.14526367 225.77245117 174.14526367 195.51245117 174.14526367 Z " fill="#000000" transform="translate(199.487548828125,88.854736328125)"/>
</svg>
