<?xml version="1.0" encoding="UTF-8" standalone="no" ?>
<!DOCTYPE svg PUBLIC "-//W3C//DTD SVG 1.1//EN" "http://www.w3.org/Graphics/SVG/1.1/DTD/svg11.dtd">
<svg xmlns="http://www.w3.org/2000/svg" xmlns:xlink="http://www.w3.org/1999/xlink" version="1.1" width="1080" height="1080" viewBox="0 0 1080 1080" xml:space="preserve">
<desc>Created with Fabric.js 5.2.4</desc>
<defs>
</defs>
<g transform="matrix(1 0 0 1 540 540)" id="1f243f08-434c-4207-b0e9-32619db7a70d"  >
<rect style="stroke: none; stroke-width: 1; stroke-dasharray: none; stroke-linecap: butt; stroke-dashoffset: 0; stroke-linejoin: miter; stroke-miterlimit: 4; fill: rgb(255,255,255); fill-rule: nonzero; opacity: 1; visibility: hidden;" vector-effect="non-scaling-stroke"  x="-540" y="-540" rx="0" ry="0" width="1080" height="1080" />
</g>
<g transform="matrix(1 0 0 1 540 540)" id="96e05e64-03e9-457e-a105-43e2eb89ff13"  >
</g>
<g transform="matrix(5.79 0 0 5.79 514.04 540)" id="db26baac-763e-4ced-b287-fa8277e71af2"  >
<path style="stroke: rgb(0,0,0); stroke-width: 0; stroke-dasharray: none; stroke-linecap: butt; stroke-dashoffset: 0; stroke-linejoin: miter; stroke-miterlimit: 4; fill: rgb(255,255,255); fill-rule: nonzero; opacity: 1;" vector-effect="non-scaling-stroke"  transform=" translate(-61.45, -41.97)" d="M 42.41 68.89 C 42.3 69.56 42.25 70.25 42.25 70.95 C 42.25 78.12 48.06 83.92 55.22 83.92 C 62.379999999999995 83.92 68.19 78.11 68.19 70.95 C 68.19 70.25 68.13 69.56 68.03 68.89 L 89.1 68.89 C 89.00999999999999 69.5 88.97 70.13 88.97 70.77 C 88.97 78.03999999999999 94.86 83.92999999999999 102.13 83.92999999999999 C 109.39999999999999 83.92999999999999 115.28999999999999 78.03999999999999 115.28999999999999 70.77 C 115.28999999999999 69.97 115.22 69.19 115.08 68.42999999999999 C 119.42999999999999 68.13999999999999 122.89 64.88999999999999 122.89 60.459999999999994 L 122.89 34.65 L 106.53 17.049999999999997 L 90.1 17.049999999999997 C 89.1 17.049999999999997 88.39999999999999 17.959999999999997 88.28999999999999 18.949999999999996 L 84.10999999999999 56.129999999999995 L 63.57 56.129999999999995 L 63.57 52.879999999999995 L 78.04 52.879999999999995 C 78.54 52.879999999999995 78.97000000000001 52.669999999999995 79.30000000000001 52.339999999999996 L 79.30000000000001 52.339999999999996 C 79.63000000000001 52.01 79.85000000000001 51.54 79.91000000000001 51.05 L 83.85000000000001 16.339999999999996 C 84.87 7.359999999999996 85.55000000000001 7.359999999999996 93.29 7.419999999999996 C 94.07000000000001 7.429999999999996 94.88000000000001 7.429999999999996 95.41000000000001 7.429999999999996 L 95.91000000000001 7.429999999999996 L 95.9 6.929999999999996 L 95.7 0.5299999999999958 L 95.69 0.059999999999995834 L 95.22 0.059999999999995834 C 93.88 0.059999999999995834 92.78 0.03999999999999583 91.73 0.029999999999995836 C 81.92 -0.11000000000000418 76.84 -0.18000000000000416 75.98 11.259999999999996 L 4.41 11.27 L 4.41 11.27 C 3.9000000000000004 11.27 3.45 11.48 3.12 11.809999999999999 L 3.12 11.809999999999999 C 2.79 12.139999999999999 2.5700000000000003 12.61 2.54 13.12 L 0 50.97 L 0 50.99 L 0 51.07 L 0 51.09 C 0 51.57 0.21 52.010000000000005 0.54 52.34 C 0.8600000000000001 52.650000000000006 1.3 52.86000000000001 1.76 52.89 L 1.78 52.89 L 1.87 52.89 L 1.8900000000000001 52.89 L 19.05 52.89 L 19.05 56.14 L 4.87 56.14 C 3.04 56.14 1.52 57.58 1.52 59.33 L 1.52 65.71 C 1.52 67.46 3.0300000000000002 68.89999999999999 4.87 68.89999999999999 L 8.52 68.89999999999999 C 8.41 69.57 8.36 70.25999999999999 8.36 70.96 C 8.36 78.13 14.169999999999998 83.92999999999999 21.33 83.92999999999999 C 28.5 83.92999999999999 34.3 78.11999999999999 34.3 70.96 C 34.3 70.25999999999999 34.239999999999995 69.57 34.14 68.89999999999999 L 42.41 68.89999999999999 L 42.41 68.89 z M 25.87 68.89 L 25.830000000000002 68.81 L 25.82 68.79 L 25.79 68.73 L 25.77 68.68 L 25.75 68.65 L 25.71 68.57000000000001 L 25.71 68.57000000000001 L 25.67 68.49000000000001 L 25.66 68.46000000000001 L 25.63 68.41000000000001 L 25.599999999999998 68.36000000000001 L 25.589999999999996 68.34000000000002 L 25.539999999999996 68.26000000000002 L 25.539999999999996 68.26000000000002 L 25.489999999999995 68.19000000000003 L 25.439999999999994 68.12000000000003 L 25.439999999999994 68.12000000000003 L 25.399999999999995 68.06000000000003 L 25.389999999999993 68.05000000000003 L 25.339999999999993 67.98000000000003 L 25.32999999999999 67.97000000000003 L 25.27999999999999 67.91000000000003 L 25.24999999999999 67.87000000000002 L 25.219999999999988 67.84000000000002 L 25.169999999999987 67.78000000000002 L 25.159999999999986 67.77000000000001 L 25.159999999999986 67.77000000000001 L 25.089999999999986 67.69000000000001 L 25.049999999999986 67.64000000000001 L 25.009999999999987 67.60000000000001 L 25 67.57 L 24.94 67.50999999999999 L 24.94 67.50999999999999 L 24.880000000000003 67.44999999999999 L 24.860000000000003 67.42999999999999 L 24.820000000000004 67.38999999999999 L 24.780000000000005 67.34999999999998 L 24.760000000000005 67.32999999999998 L 24.700000000000006 67.26999999999998 L 24.700000000000006 67.26999999999998 L 24.640000000000008 67.21999999999998 L 24.610000000000007 67.18999999999998 L 24.570000000000007 67.15999999999998 L 24.5 67.1 L 24.49 67.08999999999999 L 24.419999999999998 67.02999999999999 L 24.409999999999997 67.01999999999998 L 24.349999999999998 66.96999999999998 L 24.31 66.93999999999998 L 24.279999999999998 66.91999999999999 L 24.22 66.86999999999999 L 24.209999999999997 66.85999999999999 L 24.139999999999997 66.80999999999999 L 24.119999999999997 66.79999999999998 L 24.069999999999997 66.75999999999998 L 24.019999999999996 66.72999999999998 L 24.019999999999996 66.72999999999998 L 23.929999999999996 66.67999999999998 L 23.919999999999995 66.66999999999997 L 23.919999999999995 66.66999999999997 L 23.839999999999996 66.61999999999998 L 23.809999999999995 66.59999999999998 L 23.759999999999994 66.56999999999998 L 23.699999999999996 66.53999999999998 L 23.679999999999996 66.52999999999997 L 23.6 66.5 L 23.53 66.46 L 23.490000000000002 66.44 L 23.48 66.44 L 23.38 66.39 L 23.36 66.38 L 23.28 66.33999999999999 L 23.27 66.32999999999998 L 23.27 66.32999999999998 L 25.87 68.89 L 25.87 68.89 z M 23.04 66.26 L 23.04 66.26 L 22.95 66.23 L 22.93 66.22 L 22.87 66.2 L 22.82 66.18 L 22.79 66.17 L 22.7 66.14 L 22.7 66.14 L 22.61 66.12 L 22.58 66.11 L 22.52 66.1 L 22.46 66.08 L 22.44 66.07 L 22.35 66.05 L 22.34 66.05 L 22.26 66.03 L 22.220000000000002 66.02 L 22.17 66.00999999999999 L 22.1 65.99999999999999 L 22.080000000000002 65.99999999999999 L 21.98 66 L 21.96 66 L 21.880000000000003 65.99 L 21.830000000000002 65.97999999999999 L 21.790000000000003 65.97999999999999 L 21.710000000000004 65.96999999999998 L 21.700000000000003 65.96999999999998 L 21.610000000000003 65.95999999999998 L 21.580000000000002 65.95999999999998 L 21.470000000000002 65.95999999999998 L 21.450000000000003 65.95999999999998 L 21.42 65.95999999999998 L 21.330000000000002 65.95999999999998 L 21.240000000000002 65.95999999999998 L 21.21 65.95999999999998 L 21.19 65.95999999999998 L 21.080000000000002 65.95999999999998 L 21.05 65.95999999999998 L 20.96 65.96999999999998 L 20.95 65.96999999999998 L 20.87 65.97999999999999 L 20.830000000000002 65.97999999999999 L 20.78 65.99 L 20.69 66 L 20.67 66 L 20.580000000000002 66.01 L 20.560000000000002 66.01 L 20.490000000000002 66.02000000000001 L 20.44 66.03000000000002 L 20.400000000000002 66.04000000000002 L 20.320000000000004 66.06000000000002 L 20.310000000000002 66.06000000000002 L 20.220000000000002 66.08000000000001 L 20.19 66.09000000000002 L 20.130000000000003 66.11000000000001 L 20.070000000000004 66.12000000000002 L 20.040000000000003 66.13000000000002 L 19.950000000000003 66.15000000000002 L 19.950000000000003 66.15000000000002 L 19.860000000000003 66.18000000000002 L 19.830000000000002 66.19000000000003 L 19.78 66.21000000000002 L 19.720000000000002 66.23000000000002 L 19.700000000000003 66.24000000000002 L 19.620000000000005 66.27000000000002 L 19.610000000000003 66.27000000000002 L 19.530000000000005 66.30000000000003 L 19.490000000000006 66.32000000000002 L 19.490000000000006 66.32000000000002 L 19.380000000000006 66.36000000000003 L 19.380000000000006 66.36000000000003 L 19.370000000000005 66.37000000000003 L 19.290000000000006 66.41000000000004 L 19.270000000000007 66.42000000000004 L 19.200000000000006 66.45000000000005 L 19.150000000000006 66.47000000000004 L 19.120000000000005 66.49000000000004 L 19.050000000000004 66.53000000000004 L 19.040000000000003 66.53000000000004 L 18.960000000000004 66.57000000000005 L 18.940000000000005 66.58000000000006 L 18.890000000000004 66.61000000000006 L 18.840000000000003 66.64000000000006 L 18.810000000000002 66.66000000000005 L 18.730000000000004 66.71000000000005 L 18.730000000000004 66.71000000000005 L 18.660000000000004 66.76000000000005 L 18.630000000000003 66.78000000000004 L 18.580000000000002 66.81000000000004 L 18.53 66.85000000000005 L 18.51 66.86000000000006 L 18.44 66.91000000000005 L 18.43 66.92000000000006 L 18.37 66.97000000000006 L 18.34 66.99000000000005 L 18.3 67.02000000000005 L 18.240000000000002 67.07000000000005 L 18.23 67.08000000000006 L 18.16 67.14000000000006 L 18.15 67.15000000000006 L 18.099999999999998 67.19000000000007 L 18.06 67.22000000000007 L 18.029999999999998 67.25000000000007 L 17.97 67.30000000000007 L 17.97 67.30000000000007 L 17.91 67.36000000000007 L 17.86 67.41000000000007 L 17.849999999999998 67.42000000000007 L 17.81 67.46000000000008 L 17.79 67.48000000000008 L 17.73 67.54000000000008 L 17.73 67.54000000000008 L 17.67 67.60000000000008 L 17.610000000000003 67.67000000000007 L 17.570000000000004 67.72000000000007 L 17.560000000000002 67.74000000000007 L 17.500000000000004 67.81000000000006 L 17.490000000000002 67.82000000000006 L 17.44 67.88000000000007 L 17.41 67.91000000000007 L 17.38 67.95000000000007 L 17.33 68.01000000000008 L 17.319999999999997 68.02000000000008 L 17.269999999999996 68.09000000000007 L 17.259999999999994 68.10000000000008 L 17.219999999999995 68.16000000000008 L 17.219999999999995 68.16000000000008 L 17.169999999999995 68.23000000000008 L 17.119999999999994 68.30000000000007 L 17.119999999999994 68.30000000000007 L 17.069999999999993 68.38000000000007 L 17.05999999999999 68.40000000000006 L 17.02999999999999 68.45000000000006 L 16.99999999999999 68.50000000000006 L 16.97999999999999 68.53000000000006 L 16.969999999999988 68.55000000000005 L 16.90999999999999 68.67000000000006 L 16.899999999999988 68.68000000000006 L 16.87999999999999 68.71000000000006 L 16.85999999999999 68.76000000000006 L 16.829999999999988 68.82000000000006 L 16.819999999999986 68.84000000000006 L 16.779999999999987 68.92000000000006 C 16.489999999999988 69.55000000000005 16.329999999999988 70.25000000000006 16.329999999999988 70.98000000000006 C 16.329999999999988 73.74000000000007 18.559999999999988 75.97000000000006 21.319999999999986 75.97000000000006 C 24.079999999999984 75.97000000000006 26.309999999999988 73.74000000000005 26.309999999999988 70.98000000000006 C 26.309999999999988 70.24000000000007 26.149999999999988 69.55000000000005 25.85999999999999 68.92000000000006 L 23.04 66.26 L 23.04 66.26 z M 106.61 68.45 L 106.57 68.37 L 106.52999999999999 68.29 L 106.50999999999999 68.24000000000001 L 106.49 68.21000000000001 L 106.44999999999999 68.14000000000001 L 106.44999999999999 68.14000000000001 L 106.40999999999998 68.07000000000002 L 106.38999999999999 68.04000000000002 L 106.35 68 C 106.3 67.93 106.25 67.86 106.19999999999999 67.79 L 106.15999999999998 67.74000000000001 L 106.14999999999998 67.72000000000001 L 106.09999999999998 67.65000000000002 L 106.05999999999997 67.60000000000002 L 106.03999999999998 67.58000000000003 L 106.00999999999998 67.54000000000002 L 106 67.53 L 105.99 67.52 C 105.94 67.46 105.89 67.39999999999999 105.83 67.33999999999999 L 105.78 67.28999999999999 L 105.77 67.27999999999999 L 105.71 67.21999999999998 L 105.69 67.19999999999999 L 105.64999999999999 67.15999999999998 L 105.60999999999999 67.11999999999998 L 105.58999999999999 67.09999999999998 L 105.52999999999999 67.03999999999998 L 105.51999999999998 67.02999999999997 L 105.46999999999998 66.97999999999998 L 105.42999999999998 66.94999999999997 L 105.39999999999998 66.92999999999998 L 105.32999999999998 66.87999999999998 L 105.32999999999998 66.87999999999998 L 105.26999999999998 66.82999999999998 L 105.23999999999998 66.80999999999999 L 105.19999999999997 66.77999999999999 L 105.13999999999997 66.72999999999999 L 105.12999999999997 66.71999999999998 L 105.05999999999997 66.66999999999999 L 105.03999999999998 66.64999999999999 L 105 66.61 L 104.95 66.57 L 104.93 66.55999999999999 L 104.86000000000001 66.50999999999999 L 104.85000000000001 66.49999999999999 L 104.79 66.45999999999998 L 104.75 66.42999999999998 L 104.72 66.40999999999998 L 104.65 66.36999999999998 L 104.65 66.36999999999998 L 104.58000000000001 66.32999999999997 L 104.55000000000001 66.30999999999997 L 104.51 66.28999999999998 L 104.44000000000001 66.25999999999998 L 104.43 66.24999999999997 L 104.35000000000001 66.20999999999997 L 104.33000000000001 66.19999999999996 L 104.28000000000002 66.16999999999996 L 104.22000000000001 66.13999999999996 L 104.20000000000002 66.12999999999995 L 104.12000000000002 66.09999999999995 L 104.11000000000001 66.08999999999995 L 104.04000000000002 66.05999999999995 L 103.99000000000002 66.03999999999995 L 103.96000000000002 66.02999999999994 L 103.88000000000002 65.99999999999994 L 103.88000000000002 65.99999999999994 L 103.80000000000003 65.96999999999994 L 103.76000000000002 65.95999999999994 L 103.71000000000002 65.93999999999994 L 103.64000000000003 65.91999999999994 L 103.63000000000002 65.91999999999994 L 103.55000000000003 65.88999999999994 L 103.53000000000003 65.87999999999994 L 103.47000000000003 65.85999999999994 L 103.41000000000003 65.83999999999995 L 103.39000000000003 65.82999999999994 L 103.30000000000003 65.80999999999995 L 103.29000000000002 65.80999999999995 L 103.22000000000003 65.78999999999995 L 103.17000000000003 65.77999999999994 L 103.13000000000002 65.76999999999994 L 103.04000000000002 65.74999999999994 L 103.04000000000002 65.74999999999994 L 102.95000000000002 65.73999999999994 L 102.91000000000001 65.72999999999993 L 102.86000000000001 65.71999999999993 L 102.78000000000002 65.70999999999992 L 102.77000000000001 65.70999999999992 L 102.68 65.69999999999992 L 102.65 65.69999999999992 L 102.59 65.68999999999991 L 102.53 65.67999999999991 L 102.41 65.6699999999999 L 102.39999999999999 65.6699999999999 L 102.32 65.6699999999999 L 102.27 65.6699999999999 L 102.27 65.6699999999999 L 102.14 65.6699999999999 L 102.01 65.6699999999999 L 102.01 65.6699999999999 L 101.96000000000001 65.6699999999999 L 101.88000000000001 65.6699999999999 L 101.87 65.6699999999999 L 101.75 65.67999999999991 L 101.69 65.68999999999991 L 101.63 65.69999999999992 L 101.6 65.69999999999992 L 101.50999999999999 65.70999999999992 L 101.49999999999999 65.70999999999992 L 101.41999999999999 65.71999999999993 L 101.36999999999999 65.72999999999993 L 101.32999999999998 65.73999999999994 L 101.23999999999998 65.74999999999994 L 101.23999999999998 65.74999999999994 L 101.11999999999998 65.76999999999994 L 101.06999999999998 65.77999999999994 L 100.99999999999999 65.79999999999994 L 100.98999999999998 65.79999999999994 L 100.89999999999998 65.81999999999994 L 100.87999999999998 65.82999999999994 L 100.86999999999998 65.82999999999994 L 100.76999999999998 65.85999999999994 L 100.75999999999998 65.85999999999994 L 100.73999999999998 65.86999999999995 L 100.65999999999998 65.89999999999995 L 100.64999999999998 65.89999999999995 L 100.57999999999998 65.91999999999994 L 100.52999999999999 65.93999999999994 L 100.48999999999998 65.94999999999995 L 100.40999999999998 65.97999999999995 L 100.40999999999998 65.97999999999995 L 100.32999999999998 66.00999999999995 L 100.29999999999998 66.01999999999995 L 100.24999999999999 66.03999999999995 L 100.17999999999999 66.06999999999995 L 100.16999999999999 66.07999999999996 L 100.08999999999999 66.10999999999996 L 100.07 66.11999999999996 L 100.00999999999999 66.14999999999996 L 99.96 66.17999999999996 L 99.94 66.18999999999997 L 99.86 66.22999999999998 L 99.85 66.23999999999998 L 99.78 66.26999999999998 L 99.74 66.28999999999998 L 99.72999999999999 66.28999999999998 L 99.63 66.34999999999998 L 99.63 66.34999999999998 L 99.56 66.38999999999999 L 99.53 66.40999999999998 L 99.49 66.43999999999998 L 99.42999999999999 66.47999999999999 L 99.41999999999999 66.49 L 99.35 66.53999999999999 L 99.33 66.55 L 99.28 66.59 L 99.23 66.62 L 99.21000000000001 66.64 L 99.14000000000001 66.69 L 99.13000000000001 66.7 L 99.07000000000001 66.75 L 99 66.79 L 98.97 66.81 L 98.91 66.86 L 98.91 66.86 L 98.84 66.91 L 98.81 66.92999999999999 L 98.77 66.96 L 98.72 67.00999999999999 L 98.71 67.02 L 98.64999999999999 67.08 L 98.63 67.1 L 98.58 67.14 L 98.53999999999999 67.18 L 98.52 67.2 L 98.46 67.26 L 98.44999999999999 67.27000000000001 L 98.39999999999999 67.32000000000001 L 98.36999999999999 67.35000000000001 L 98.33999999999999 67.38000000000001 L 98.28999999999999 67.44000000000001 L 98.28999999999999 67.44000000000001 L 98.24 67.50000000000001 L 98.22 67.53000000000002 L 98.19 67.57000000000002 L 98.14999999999999 67.62000000000002 L 98.13999999999999 67.63000000000002 L 98.08999999999999 67.70000000000002 L 98.07999999999998 67.72000000000001 L 98.03999999999998 67.77000000000001 L 98.00999999999998 67.82000000000001 L 97.98999999999998 67.84 L 97.93999999999998 67.91 L 97.88 68 L 97.85 68.04 L 97.83 68.07000000000001 L 97.78999999999999 68.14 L 97.78999999999999 68.14 L 97.74999999999999 68.21 L 97.72999999999999 68.24 L 97.69999999999999 68.28999999999999 L 97.68999999999998 68.3 L 97.65999999999998 68.36 L 97.61999999999998 68.44 C 97.25999999999998 69.13 97.05999999999997 69.92 97.05999999999997 70.75999999999999 C 97.05999999999997 73.55 99.31999999999998 75.82 102.11999999999998 75.82 C 104.90999999999998 75.82 107.17999999999998 73.55999999999999 107.17999999999998 70.75999999999999 C 107.18 69.93 106.97 69.14 106.61 68.45 L 106.61 68.45 z M 106.45 24.65 L 114.7 34.48 L 114.7 38.059999999999995 L 96.44 38.059999999999995 L 96.44 24.65 L 106.45 24.65 L 106.45 24.65 z M 34.15 32.91 L 45.44 32.91 L 43.849999999999994 42.919999999999995 L 32.56 42.919999999999995 L 34.15 32.91 L 34.15 32.91 z M 15.82 17.45 L 27.11 17.45 L 25.52 27.46 L 14.24 27.46 L 15.82 17.45 L 15.82 17.45 z M 13.36 32.91 L 24.65 32.91 L 23.06 42.919999999999995 L 11.77 42.919999999999995 L 13.36 32.91 L 13.36 32.91 z M 57.83 17.45 L 69.12 17.45 L 67.53 27.46 L 56.24 27.46 L 57.83 17.45 L 57.83 17.45 z M 55.36 32.91 L 66.65 32.91 L 65.06 42.919999999999995 L 53.35 42.919999999999995 L 55.36 32.91 L 55.36 32.91 z M 36.61 17.45 L 47.9 17.45 L 46.309999999999995 27.46 L 35.03 27.46 L 36.61 17.45 L 36.61 17.45 z M 55.22 65.96 L 55.129999999999995 65.96 L 55.099999999999994 65.96 L 55.07999999999999 65.96 L 54.96999999999999 65.96 L 54.93999999999999 65.96 L 54.84999999999999 65.97 L 54.83999999999999 65.97 L 54.75999999999999 65.98 L 54.71999999999999 65.98 L 54.669999999999995 65.99000000000001 L 54.59 66 L 54.57 66 L 54.48 66.01 L 54.459999999999994 66.01 L 54.38999999999999 66.02000000000001 L 54.339999999999996 66.03000000000002 L 54.3 66.04000000000002 L 54.22 66.06000000000002 L 54.21 66.06000000000002 L 54.12 66.08000000000001 L 54.089999999999996 66.09000000000002 L 54.029999999999994 66.11000000000001 L 53.96999999999999 66.12000000000002 L 53.93999999999999 66.13000000000002 L 53.84999999999999 66.15000000000002 L 53.84999999999999 66.15000000000002 L 53.759999999999984 66.18000000000002 L 53.72999999999998 66.19000000000003 L 53.679999999999986 66.21000000000002 L 53.61999999999998 66.23000000000002 L 53.59999999999998 66.24000000000002 L 53.51999999999998 66.27000000000002 L 53.509999999999984 66.27000000000002 L 53.429999999999986 66.30000000000003 L 53.389999999999986 66.32000000000002 L 53.389999999999986 66.32000000000002 L 53.27999999999999 66.36000000000003 L 53.27999999999999 66.36000000000003 L 53.26999999999999 66.37000000000003 L 53.18999999999999 66.41000000000004 L 53.16999999999999 66.42000000000004 L 53.09999999999999 66.45000000000005 L 53.05999999999999 66.47000000000004 L 53.01999999999999 66.49000000000004 L 52.94999999999999 66.53000000000004 L 52.93999999999999 66.53000000000004 L 52.85999999999999 66.57000000000005 L 52.83999999999999 66.58000000000006 L 52.78999999999999 66.61000000000006 L 52.739999999999995 66.64000000000006 L 52.709999999999994 66.66000000000005 L 52.629999999999995 66.71000000000005 L 52.629999999999995 66.71000000000005 L 52.559999999999995 66.76000000000005 L 52.529999999999994 66.78000000000004 L 52.48 66.81000000000004 L 52.43 66.85000000000005 L 52.41 66.86000000000006 L 52.339999999999996 66.91000000000005 L 52.33 66.92000000000006 L 52.269999999999996 66.97000000000006 L 52.239999999999995 66.99000000000005 L 52.199999999999996 67.02000000000005 L 52.13999999999999 67.07000000000005 L 52.129999999999995 67.08000000000006 L 52.059999999999995 67.14000000000006 L 52.05 67.15000000000006 L 52 67.19000000000007 L 51.96 67.22000000000007 L 51.93 67.25000000000007 L 51.87 67.30000000000007 L 51.87 67.30000000000007 L 51.809999999999995 67.36000000000007 L 51.76 67.41000000000007 L 51.75 67.42000000000007 L 51.71 67.46000000000008 L 51.69 67.48000000000008 L 51.629999999999995 67.54000000000008 L 51.629999999999995 67.54000000000008 L 51.56999999999999 67.60000000000008 L 51.50999999999999 67.67000000000007 L 51.46999999999999 67.72000000000007 L 51.459999999999994 67.74000000000007 L 51.39999999999999 67.81000000000006 L 51.38999999999999 67.82000000000006 L 51.339999999999996 67.88000000000007 L 51.309999999999995 67.91000000000007 L 51.279999999999994 67.95000000000007 L 51.23 68.01000000000008 L 51.22 68.02000000000008 L 51.17 68.09000000000007 L 51.160000000000004 68.10000000000008 L 51.120000000000005 68.16000000000008 L 51.120000000000005 68.16000000000008 L 51.07000000000001 68.23000000000008 L 51.02000000000001 68.30000000000007 L 51.02000000000001 68.30000000000007 L 50.97000000000001 68.38000000000007 L 50.960000000000015 68.40000000000006 L 50.930000000000014 68.45000000000006 L 50.90000000000001 68.50000000000006 L 50.890000000000015 68.53000000000006 L 50.88000000000002 68.55000000000005 L 50.820000000000014 68.67000000000006 L 50.81000000000002 68.68000000000006 L 50.79000000000001 68.71000000000006 L 50.77000000000001 68.76000000000006 L 50.74000000000001 68.82000000000006 L 50.73000000000001 68.84000000000006 L 50.69000000000001 68.92000000000006 C 50.40000000000001 69.55000000000005 50.24000000000001 70.25000000000006 50.24000000000001 70.98000000000006 C 50.24000000000001 73.74000000000007 52.470000000000006 75.97000000000006 55.23000000000001 75.97000000000006 C 57.99000000000001 75.97000000000006 60.22000000000001 73.74000000000005 60.22000000000001 70.98000000000006 C 60.22000000000001 70.24000000000007 60.06000000000002 69.55000000000005 59.77000000000001 68.92000000000006 L 59.73000000000001 68.84000000000006 L 59.72000000000001 68.82000000000006 L 59.69000000000001 68.76000000000006 L 59.67000000000001 68.71000000000006 L 59.650000000000006 68.68000000000006 L 59.61000000000001 68.60000000000007 L 59.61000000000001 68.60000000000007 L 59.57000000000001 68.52000000000007 L 59.56000000000001 68.49000000000007 L 59.53000000000001 68.44000000000007 L 59.50000000000001 68.39000000000007 L 59.49000000000001 68.37000000000008 L 59.44000000000001 68.29000000000008 L 59.44000000000001 68.29000000000008 L 59.390000000000015 68.22000000000008 L 59.34000000000002 68.15000000000009 L 59.34000000000002 68.15000000000009 L 59.30000000000002 68.09000000000009 L 59.29000000000002 68.08000000000008 L 59.24000000000002 68.01000000000009 L 59.230000000000025 68.00000000000009 L 59.18000000000003 67.94000000000008 L 59.15000000000003 67.90000000000008 L 59.120000000000026 67.87000000000008 L 59.07000000000003 67.81000000000007 L 59.06000000000003 67.80000000000007 L 59.06000000000003 67.80000000000007 L 59 67.68 L 58.96 67.63000000000001 L 58.92 67.59 L 58.9 67.57000000000001 L 58.839999999999996 67.51 L 58.839999999999996 67.51 L 58.779999999999994 67.45 L 58.75999999999999 67.43 L 58.71999999999999 67.39 L 58.669999999999995 67.35 L 58.64999999999999 67.33 L 58.58999999999999 67.27 L 58.58999999999999 67.27 L 58.52999999999999 67.22 L 58.499999999999986 67.19 L 58.45999999999999 67.16 L 58.4 67.1 L 58.39 67.08999999999999 L 58.32 67.02999999999999 L 58.31 67.01999999999998 L 58.25 66.96999999999998 L 58.21 66.93999999999998 L 58.18 66.91999999999999 L 58.12 66.86999999999999 L 58.11 66.85999999999999 L 58.04 66.80999999999999 L 58.019999999999996 66.79999999999998 L 57.97 66.75999999999998 L 57.92 66.72999999999998 L 57.92 66.72999999999998 L 57.83 66.67999999999998 L 57.82 66.66999999999997 L 57.82 66.66999999999997 L 57.74 66.61999999999998 L 57.71 66.59999999999998 L 57.660000000000004 66.56999999999998 L 57.6 66.53999999999998 L 57.58 66.52999999999997 L 57.489999999999995 66.48999999999997 L 57.419999999999995 66.44999999999996 L 57.379999999999995 66.42999999999996 L 57.37 66.42999999999996 L 57.269999999999996 66.37999999999997 L 57.24999999999999 66.36999999999996 L 57.169999999999995 66.32999999999996 L 57.16 66.31999999999995 L 57.16 66.31999999999995 C 57.089999999999996 66.28999999999995 57.01 66.25999999999995 56.94 66.22999999999995 L 56.93 66.22999999999995 L 56.85 66.19999999999995 L 56.83 66.18999999999994 L 56.769999999999996 66.16999999999994 L 56.72 66.14999999999995 L 56.69 66.13999999999994 L 56.599999999999994 66.10999999999994 L 56.599999999999994 66.10999999999994 L 56.50999999999999 66.08999999999995 L 56.47999999999999 66.07999999999994 L 56.41999999999999 66.06999999999994 L 56.359999999999985 66.04999999999994 L 56.33999999999998 66.03999999999994 L 56.24999999999998 66.01999999999994 L 56.23999999999998 66.01999999999994 L 56.15999999999998 65.99999999999994 L 56.11999999999998 65.98999999999994 L 56.069999999999986 65.97999999999993 L 55.999999999999986 65.96999999999993 L 55.97999999999998 65.96999999999993 L 55.87 66 L 55.849999999999994 66 L 55.769999999999996 65.99 L 55.72 65.97999999999999 L 55.68 65.97999999999999 L 55.6 65.96999999999998 L 55.59 65.96999999999998 L 55.5 65.95999999999998 L 55.47 65.95999999999998 L 55.36 65.95999999999998 L 55.339999999999996 65.95999999999998 L 55.309999999999995 65.95999999999998 L 55.22 65.96 L 55.22 65.96 z" stroke-linecap="round" />
</g>
</svg>