<?xml version="1.0" encoding="UTF-8" standalone="no" ?>
<!DOCTYPE svg PUBLIC "-//W3C//DTD SVG 1.1//EN" "http://www.w3.org/Graphics/SVG/1.1/DTD/svg11.dtd">
<svg xmlns="http://www.w3.org/2000/svg" xmlns:xlink="http://www.w3.org/1999/xlink" version="1.1" width="1080" height="1080" viewBox="0 0 1080 1080" xml:space="preserve">
<desc>Created with Fabric.js 5.2.4</desc>
<defs>
</defs>
<rect x="0" y="0" width="100%" height="100%" fill="transparent"></rect>
<g transform="matrix(1 0 0 1 540 540)" id="35d447d4-6431-4ca0-8476-83b9e39ecbc8"  >
<rect style="stroke: none; stroke-width: 1; stroke-dasharray: none; stroke-linecap: butt; stroke-dashoffset: 0; stroke-linejoin: miter; stroke-miterlimit: 4; fill: rgb(255,255,255); fill-rule: nonzero; opacity: 1; visibility: hidden;" vector-effect="non-scaling-stroke"  x="-540" y="-540" rx="0" ry="0" width="1080" height="1080" />
</g>
<g transform="matrix(1 0 0 1 540 540)" id="009722f4-71e2-41e7-9b98-a14bf3b7dca6"  >
</g>
<g transform="matrix(0 0 0 0 0 0)"  >
<g style=""   >
</g>
</g>
<g transform="matrix(0 0 0 0 0 0)"  >
<g style=""   >
</g>
</g>
<g transform="matrix(0 0 0 0 0 0)"  >
<g style=""   >
</g>
</g>
<g transform="matrix(0 0 0 0 0 0)"  >
<g style=""   >
</g>
</g>
<g transform="matrix(1 0 0 1 540 540)"  >
<g style="" vector-effect="non-scaling-stroke"   >
		<g transform="matrix(1.56 0 0 1.56 -133.02 305.41)"  >
<path style="stroke: none; stroke-width: 1; stroke-dasharray: none; stroke-linecap: butt; stroke-dashoffset: 0; stroke-linejoin: miter; stroke-miterlimit: 4; fill: rgb(0,0,0); fill-opacity: 0; fill-rule: nonzero; opacity: 1;" vector-effect="non-scaling-stroke"  transform=" translate(-170.87, -451.46)" d="M 226.932 399.948 C 206.97199999999998 418.393 179.36499999999998 422.524 154.879 410.734 C 146.027 406.471 138.557 400.585 132.709 393.53499999999997 L 99.368 467.279 C 97.851 470.634 99.545 473.163 100.34299999999999 474.094 C 101.14099999999999 475.024 103.38199999999999 477.08299999999997 106.92799999999998 476.097 L 131.2 469.341 C 133.96599999999998 468.572 136.762 468.201 139.51899999999998 468.201 C 151.14999999999998 468.201 162.09699999999998 474.78400000000005 167.36799999999997 485.69300000000004 L 178.32999999999996 508.37800000000004 C 179.93099999999995 511.69300000000004 182.93399999999997 512.024 184.18399999999997 511.999 C 185.40999999999997 511.983 188.42599999999996 511.58500000000004 189.94199999999998 508.23 L 242.97499999999997 390.92600000000004 C 237.148 392.603 231.63 395.606 226.932 399.948 z" stroke-linecap="round" />
</g>
		<g transform="matrix(1.56 0 0 1.56 133.02 305.41)"  >
<path style="stroke: none; stroke-width: 1; stroke-dasharray: none; stroke-linecap: butt; stroke-dashoffset: 0; stroke-linejoin: miter; stroke-miterlimit: 4; fill: rgb(0,0,0); fill-opacity: 0; fill-rule: nonzero; opacity: 1;" vector-effect="non-scaling-stroke"  transform=" translate(-341.13, -451.46)" d="M 412.631 467.279 L 379.28999999999996 393.53499999999997 C 373.44199999999995 400.58599999999996 365.972 406.472 357.11999999999995 410.734 C 332.6329999999999 422.524 305.02699999999993 418.393 285.06699999999995 399.948 C 280.36899999999997 395.606 274.85099999999994 392.60299999999995 269.02199999999993 390.926 L 322.05499999999995 508.23 C 323.57199999999995 511.586 326.58799999999997 511.983 327.81299999999993 511.999 C 329.06299999999993 512.024 332.0659999999999 511.69300000000004 333.6669999999999 508.37800000000004 L 344.6289999999999 485.69300000000004 C 349.8989999999999 474.78400000000005 360.8469999999999 468.201 372.4779999999999 468.201 C 375.2349999999999 468.201 378.03199999999987 468.572 380.7969999999999 469.341 L 405.0689999999999 476.097 C 408.6149999999999 477.084 410.8569999999999 475.025 411.6539999999999 474.094 C 412.454 473.162 414.148 470.633 412.631 467.279 z" stroke-linecap="round" />
</g>
		<g transform="matrix(1.56 0 0 1.56 0 -93.19)"  >
<path style="stroke: none; stroke-width: 1; stroke-dasharray: none; stroke-linecap: butt; stroke-dashoffset: 0; stroke-linejoin: miter; stroke-miterlimit: 4; fill: rgb(0,0,0); fill-opacity: 0; fill-rule: nonzero; opacity: 1;" vector-effect="non-scaling-stroke"  transform=" translate(-256, -196.36)" d="M 438.821 207.791 C 411.13100000000003 188.831 402.53900000000004 151.186 419.261 122.089 C 429.312 104.598 424.081 87.314 415.834 76.971 C 407.586 66.631 391.898 57.68600000000001 372.611 63.591 C 340.527 73.418 305.734 56.666000000000004 293.40999999999997 25.450000000000003 C 286.002 6.686 269.227 0 256 0 C 242.773 0 225.998 6.686 218.59 25.451 C 206.266 56.668 171.476 73.418 139.389 63.592 C 120.10000000000001 57.688 104.41500000000002 66.631 96.16600000000001 76.972 C 87.91900000000001 87.315 82.68800000000002 104.597 92.739 122.09 C 109.46100000000001 151.186 100.869 188.832 73.179 207.792 C 56.533 219.191 53.748000000000005 237.032 56.69 249.928 C 59.632 262.824 69.884 277.689 89.827 280.736 C 123.001 285.804 147.075 315.99199999999996 144.636 349.46299999999997 C 143.168 369.58399999999995 155.381 382.88599999999997 167.298 388.626 C 179.216 394.36499999999995 197.23 395.621 212.046 381.928 C 224.368 370.541 240.18699999999998 364.845 255.999 364.845 C 271.817 364.845 287.627 370.538 299.951 381.928 C 314.769 395.622 332.784 394.366 344.701 388.626 C 356.618 382.887 368.83000000000004 369.585 367.363 349.464 C 364.924 315.993 388.998 285.805 422.172 280.736 C 442.115 277.68899999999996 452.365 262.823 455.309 249.928 C 458.252 237.03 455.465 219.189 438.821 207.791 z M 256 335.923 C 183.425 335.923 124.381 276.879 124.381 204.304 C 124.381 131.72899999999998 183.424 72.684 256 72.684 C 328.576 72.684 387.619 131.728 387.619 204.303 C 387.618 276.878 328.575 335.923 256 335.923 z" stroke-linecap="round" />
</g>
		<g transform="matrix(1.56 0 0 1.56 0 -80.78)"  >
<path style="stroke: none; stroke-width: 1; stroke-dasharray: none; stroke-linecap: butt; stroke-dashoffset: 0; stroke-linejoin: miter; stroke-miterlimit: 4; fill: rgb(0,0,0); fill-opacity: 0; fill-rule: nonzero; opacity: 1;" vector-effect="non-scaling-stroke"  transform=" translate(-256, -204.3)" d="M 255.999 97.225 C 196.95499999999998 97.225 148.92000000000002 145.261 148.92000000000002 204.30399999999997 C 148.92000000000002 263.347 196.954 311.383 255.99900000000002 311.383 C 315.04400000000004 311.383 363.07800000000003 263.347 363.07800000000003 204.30399999999997 C 363.07800000000003 145.26099999999997 315.043 97.225 255.999 97.225 z M 310.874 193.922 L 244.23200000000003 242.59699999999998 C 242.11700000000002 244.14199999999997 239.57900000000004 244.95899999999997 236.99500000000003 244.95899999999997 C 236.32900000000004 244.95899999999997 235.66000000000003 244.90499999999997 234.99400000000003 244.795 C 231.74500000000003 244.25799999999998 228.84700000000004 242.43699999999998 226.95300000000003 239.74099999999999 L 207.01900000000003 211.35899999999998 C 203.12400000000002 205.81199999999998 204.46300000000002 198.159 210.00800000000004 194.26399999999998 C 215.55400000000003 190.36899999999997 223.20600000000005 191.707 227.10200000000003 197.253 L 239.85200000000003 215.40699999999998 L 296.40000000000003 174.105 C 301.87300000000005 170.10999999999999 309.55 171.302 313.54600000000005 176.77599999999998 C 317.543 182.248 316.346 189.924 310.874 193.922 z" stroke-linecap="round" />
</g>
</g>
</g>
<g transform="matrix(NaN NaN NaN NaN 0 0)"  >
<g style=""   >
</g>
</g>
<g transform="matrix(NaN NaN NaN NaN 0 0)"  >
<g style=""   >
</g>
</g>
<g transform="matrix(1.32 0 0 1.32 537.81 537.21)"  >
<g style="" vector-effect="non-scaling-stroke"   >
		<g transform="matrix(1.56 0 0 1.56 -133.02 305.41)"  >
<path style="stroke: none; stroke-width: 1; stroke-dasharray: none; stroke-linecap: butt; stroke-dashoffset: 0; stroke-linejoin: miter; stroke-miterlimit: 4; fill: rgb(248,207,71); fill-rule: nonzero; opacity: 1;" vector-effect="non-scaling-stroke"  transform=" translate(-170.87, -451.46)" d="M 226.932 399.948 C 206.97199999999998 418.393 179.36499999999998 422.524 154.879 410.734 C 146.027 406.471 138.557 400.585 132.709 393.53499999999997 L 99.368 467.279 C 97.851 470.634 99.545 473.163 100.34299999999999 474.094 C 101.14099999999999 475.024 103.38199999999999 477.08299999999997 106.92799999999998 476.097 L 131.2 469.341 C 133.96599999999998 468.572 136.762 468.201 139.51899999999998 468.201 C 151.14999999999998 468.201 162.09699999999998 474.78400000000005 167.36799999999997 485.69300000000004 L 178.32999999999996 508.37800000000004 C 179.93099999999995 511.69300000000004 182.93399999999997 512.024 184.18399999999997 511.999 C 185.40999999999997 511.983 188.42599999999996 511.58500000000004 189.94199999999998 508.23 L 242.97499999999997 390.92600000000004 C 237.148 392.603 231.63 395.606 226.932 399.948 z" stroke-linecap="round" />
</g>
		<g transform="matrix(1.56 0 0 1.56 133.02 305.41)"  >
<path style="stroke: none; stroke-width: 1; stroke-dasharray: none; stroke-linecap: butt; stroke-dashoffset: 0; stroke-linejoin: miter; stroke-miterlimit: 4; fill: rgb(248,207,71); fill-rule: nonzero; opacity: 1;" vector-effect="non-scaling-stroke"  transform=" translate(-341.13, -451.46)" d="M 412.631 467.279 L 379.28999999999996 393.53499999999997 C 373.44199999999995 400.58599999999996 365.972 406.472 357.11999999999995 410.734 C 332.6329999999999 422.524 305.02699999999993 418.393 285.06699999999995 399.948 C 280.36899999999997 395.606 274.85099999999994 392.60299999999995 269.02199999999993 390.926 L 322.05499999999995 508.23 C 323.57199999999995 511.586 326.58799999999997 511.983 327.81299999999993 511.999 C 329.06299999999993 512.024 332.0659999999999 511.69300000000004 333.6669999999999 508.37800000000004 L 344.6289999999999 485.69300000000004 C 349.8989999999999 474.78400000000005 360.8469999999999 468.201 372.4779999999999 468.201 C 375.2349999999999 468.201 378.03199999999987 468.572 380.7969999999999 469.341 L 405.0689999999999 476.097 C 408.6149999999999 477.084 410.8569999999999 475.025 411.6539999999999 474.094 C 412.454 473.162 414.148 470.633 412.631 467.279 z" stroke-linecap="round" />
</g>
		<g transform="matrix(1.56 0 0 1.56 0 -93.19)"  >
<path style="stroke: none; stroke-width: 1; stroke-dasharray: none; stroke-linecap: butt; stroke-dashoffset: 0; stroke-linejoin: miter; stroke-miterlimit: 4; fill: rgb(248,207,71); fill-rule: nonzero; opacity: 1;" vector-effect="non-scaling-stroke"  transform=" translate(-256, -196.36)" d="M 438.821 207.791 C 411.13100000000003 188.831 402.53900000000004 151.186 419.261 122.089 C 429.312 104.598 424.081 87.314 415.834 76.971 C 407.586 66.631 391.898 57.68600000000001 372.611 63.591 C 340.527 73.418 305.734 56.666000000000004 293.40999999999997 25.450000000000003 C 286.002 6.686 269.227 0 256 0 C 242.773 0 225.998 6.686 218.59 25.451 C 206.266 56.668 171.476 73.418 139.389 63.592 C 120.10000000000001 57.688 104.41500000000002 66.631 96.16600000000001 76.972 C 87.91900000000001 87.315 82.68800000000002 104.597 92.739 122.09 C 109.46100000000001 151.186 100.869 188.832 73.179 207.792 C 56.533 219.191 53.748000000000005 237.032 56.69 249.928 C 59.632 262.824 69.884 277.689 89.827 280.736 C 123.001 285.804 147.075 315.99199999999996 144.636 349.46299999999997 C 143.168 369.58399999999995 155.381 382.88599999999997 167.298 388.626 C 179.216 394.36499999999995 197.23 395.621 212.046 381.928 C 224.368 370.541 240.18699999999998 364.845 255.999 364.845 C 271.817 364.845 287.627 370.538 299.951 381.928 C 314.769 395.622 332.784 394.366 344.701 388.626 C 356.618 382.887 368.83000000000004 369.585 367.363 349.464 C 364.924 315.993 388.998 285.805 422.172 280.736 C 442.115 277.68899999999996 452.365 262.823 455.309 249.928 C 458.252 237.03 455.465 219.189 438.821 207.791 z M 256 335.923 C 183.425 335.923 124.381 276.879 124.381 204.304 C 124.381 131.72899999999998 183.424 72.684 256 72.684 C 328.576 72.684 387.619 131.728 387.619 204.303 C 387.618 276.878 328.575 335.923 256 335.923 z" stroke-linecap="round" />
</g>
		<g transform="matrix(1.56 0 0 1.56 0 -80.78)"  >
<path style="stroke: none; stroke-width: 1; stroke-dasharray: none; stroke-linecap: butt; stroke-dashoffset: 0; stroke-linejoin: miter; stroke-miterlimit: 4; fill: rgb(248,207,71); fill-rule: nonzero; opacity: 1;" vector-effect="non-scaling-stroke"  transform=" translate(-256, -204.3)" d="M 255.999 97.225 C 196.95499999999998 97.225 148.92000000000002 145.261 148.92000000000002 204.30399999999997 C 148.92000000000002 263.347 196.954 311.383 255.99900000000002 311.383 C 315.04400000000004 311.383 363.07800000000003 263.347 363.07800000000003 204.30399999999997 C 363.07800000000003 145.26099999999997 315.043 97.225 255.999 97.225 z M 310.874 193.922 L 244.23200000000003 242.59699999999998 C 242.11700000000002 244.14199999999997 239.57900000000004 244.95899999999997 236.99500000000003 244.95899999999997 C 236.32900000000004 244.95899999999997 235.66000000000003 244.90499999999997 234.99400000000003 244.795 C 231.74500000000003 244.25799999999998 228.84700000000004 242.43699999999998 226.95300000000003 239.74099999999999 L 207.01900000000003 211.35899999999998 C 203.12400000000002 205.81199999999998 204.46300000000002 198.159 210.00800000000004 194.26399999999998 C 215.55400000000003 190.36899999999997 223.20600000000005 191.707 227.10200000000003 197.253 L 239.85200000000003 215.40699999999998 L 296.40000000000003 174.105 C 301.87300000000005 170.10999999999999 309.55 171.302 313.54600000000005 176.77599999999998 C 317.543 182.248 316.346 189.924 310.874 193.922 z" stroke-linecap="round" />
</g>
</g>
</g>
<g transform="matrix(NaN NaN NaN NaN 0 0)"  >
<g style=""   >
</g>
</g>
<g transform="matrix(NaN NaN NaN NaN 0 0)"  >
<g style=""   >
</g>
</g>
</svg>