<?xml version="1.0" encoding="UTF-8" standalone="no" ?>
<!DOCTYPE svg PUBLIC "-//W3C//DTD SVG 1.1//EN" "http://www.w3.org/Graphics/SVG/1.1/DTD/svg11.dtd">
<svg xmlns="http://www.w3.org/2000/svg" xmlns:xlink="http://www.w3.org/1999/xlink" version="1.1" width="1080" height="1080" viewBox="0 0 1080 1080" xml:space="preserve">
<desc>Created with Fabric.js 5.2.4</desc>
<defs>
</defs>
<g transform="matrix(1 0 0 1 540 540)" id="009722f4-71e2-41e7-9b98-a14bf3b7dca6"  >
</g>
<g transform="matrix(1 0 0 1 540 540)" id="35d447d4-6431-4ca0-8476-83b9e39ecbc8"  >
<rect style="stroke: none; stroke-width: 1; stroke-dasharray: none; stroke-linecap: butt; stroke-dashoffset: 0; stroke-linejoin: miter; stroke-miterlimit: 4; fill: rgb(255,255,255); fill-rule: nonzero; opacity: 1; visibility: hidden;" vector-effect="non-scaling-stroke"  x="-540" y="-540" rx="0" ry="0" width="1080" height="1080" />
</g>
<g transform="matrix(2.29 0 0 2.29 541.23 541.23)"  >
<path style="stroke: rgb(206,7,7); stroke-opacity: 0; stroke-width: 0; stroke-dasharray: none; stroke-linecap: butt; stroke-dashoffset: 0; stroke-linejoin: miter; stroke-miterlimit: 4; fill: rgb(248,207,71); fill-rule: nonzero; opacity: 1;" vector-effect="non-scaling-stroke"  transform=" translate(-231.5, -231.5)" d="M 395.195 67.805 C 351.471 24.080000000000005 293.336 0 231.5 0 C 169.664 0 111.529 24.08 67.805 67.805 C 24.081000000000017 111.53000000000002 0 169.664 0 231.5 C 0 293.336 24.08 351.471 67.805 395.195 C 111.53000000000002 438.919 169.664 463 231.5 463 C 293.336 463 351.471 438.92 395.195 395.195 C 438.919 351.46999999999997 463 293.336 463 231.5 C 463 169.664 438.92 111.529 395.195 67.805 z M 429.204 320 L 394.716 320 C 402.721 294.556 407.219 267.207 407.899 239 L 447.858 239 C 446.899 267.346 440.52 294.746 429.204 320 z M 15.141999999999996 239 L 55.101 239 C 55.78 267.207 60.278 294.556 68.28399999999999 320 L 33.79599999999999 320 C 22.47999999999999 294.746 16.100999999999992 267.346 15.141999999999992 239 z M 33.79599999999999 143 L 68.28399999999999 143 C 60.27899999999999 168.444 55.78099999999999 195.793 55.10099999999999 224 L 15.141999999999989 224 C 16.10099999999999 195.654 22.47999999999999 168.254 33.79599999999999 143 z M 327.94599999999997 224 C 327.58299999999997 195.779 325.179 168.423 320.907 143 L 378.88 143 C 387.226 167.878 392.158 195.236 392.893 224 L 327.94599999999997 224 z M 281.86999999999995 400 L 238.99999999999994 400 L 238.99999999999994 335 L 302.8209999999999 335 C 298.80799999999994 353.969 293.6599999999999 371.525 287.4629999999999 387.123 C 285.6649999999999 391.647 283.79599999999994 395.936 281.8699999999999 400 z M 238.99999999999994 446.988 L 238.99999999999994 415 L 273.84999999999997 415 C 263.159 432.64300000000003 251.16099999999997 443.727 238.99999999999997 446.988 z M 189.14999999999995 415 L 223.99999999999994 415 L 223.99999999999994 446.988 C 211.83899999999994 443.727 199.84099999999995 432.643 189.14999999999995 415 z M 175.53699999999995 387.123 C 169.33999999999995 371.525 164.19099999999995 353.96999999999997 160.17899999999995 335 L 223.99999999999994 335 L 223.99999999999994 400 L 181.12999999999994 400 C 179.20399999999995 395.936 177.33499999999995 391.647 175.53699999999995 387.123 z M 181.12999999999994 63 L 223.99999999999994 63 L 223.99999999999994 128 L 160.17899999999995 128 C 164.19199999999995 109.031 169.33999999999995 91.475 175.53699999999995 75.87700000000001 C 177.33499999999995 71.35300000000001 179.20399999999995 67.06400000000001 181.12999999999994 63.00000000000001 z M 223.99999999999994 16.012 L 223.99999999999994 48 L 189.14999999999995 48 C 199.84099999999995 30.357 211.83899999999994 19.273 223.99999999999994 16.012 z M 273.84999999999997 48 L 238.99999999999997 48 L 238.99999999999997 16.012 C 251.16099999999997 19.273 263.159 30.357 273.84999999999997 48 z M 287.46299999999997 75.877 C 293.65999999999997 91.475 298.80899999999997 109.03 302.82099999999997 128 L 238.99999999999997 128 L 238.99999999999997 63 L 281.86999999999995 63 C 283.79599999999994 67.064 285.66499999999996 71.353 287.46299999999997 75.877 z M 223.99999999999997 143 L 223.99999999999997 224 L 150.05499999999998 224 C 150.427 195.662 152.902 168.279 157.296 143 L 224 143 z M 223.99999999999997 239 L 223.99999999999997 320 L 157.29699999999997 320 C 152.90299999999996 294.721 150.42799999999997 267.338 150.05599999999998 239 L 224 239 z M 238.99999999999997 320 L 238.99999999999997 239 L 312.94499999999994 239 C 312.5729999999999 267.338 310.09799999999996 294.721 305.70399999999995 320 L 238.99999999999994 320 z M 238.99999999999997 224 L 238.99999999999997 143 L 305.703 143 C 310.097 168.279 312.572 195.662 312.94399999999996 224 L 238.99999999999994 224 z M 318.12399999999997 128 C 313.84599999999995 106.992 308.239 87.545 301.402 70.339 C 300.404 67.826 299.381 65.387 298.342 63 L 332.781 63 C 349.26300000000003 80.839 363.09000000000003 102.917 373.317 128 L 318.124 128 z M 291.10499999999996 48 C 285.77899999999994 38.054 280.04299999999995 29.56 273.97599999999994 22.614 C 289.38699999999994 28.252000000000002 303.88599999999997 36.877 317.10599999999994 48 L 291.10499999999996 48 z M 171.89499999999998 48 L 145.89499999999998 48 C 159.11499999999998 36.877 173.61299999999997 28.252 189.02499999999998 22.614 C 182.95699999999997 29.560000000000002 177.22099999999998 38.054 171.89499999999998 48 z M 164.658 63 C 163.619 65.387 162.59599999999998 67.826 161.59799999999998 70.339 C 154.76199999999997 87.545 149.154 106.99199999999999 144.87599999999998 128 L 89.68299999999998 128 C 99.90999999999998 102.917 113.73599999999998 80.839 130.219 63 L 164.658 63 z M 142.093 143 C 137.821 168.423 135.417 195.779 135.054 224 L 70.107 224 C 70.842 195.236 75.774 167.878 84.12 143 L 142.09300000000002 143 z M 70.10699999999999 239 L 135.05399999999997 239 C 135.41699999999997 267.221 137.82099999999997 294.577 142.09299999999996 320 L 84.11999999999996 320 C 75.77399999999996 295.122 70.84199999999996 267.764 70.10699999999996 239 z M 144.87599999999998 335 C 149.15399999999997 356.008 154.76099999999997 375.455 161.59799999999998 392.661 C 162.59599999999998 395.174 163.61899999999997 397.613 164.658 400 L 130.219 400 C 113.737 382.161 99.91 360.08299999999997 89.68299999999999 335 L 144.87599999999998 335 z M 171.89499999999998 415 C 177.22099999999998 424.946 182.957 433.44 189.02399999999997 440.386 C 173.61299999999997 434.74800000000005 159.11399999999998 426.12300000000005 145.89399999999998 415 L 171.89499999999998 415 z M 291.10499999999996 415 L 317.10499999999996 415 C 303.88499999999993 426.123 289.38699999999994 434.748 273.97499999999997 440.386 C 280.04299999999995 433.44 285.77899999999994 424.946 291.10499999999996 415 z M 298.342 400 C 299.381 397.613 300.404 395.174 301.402 392.661 C 308.238 375.455 313.846 356.008 318.12399999999997 335 L 373.31699999999995 335 C 363.09 360.08299999999997 349.26399999999995 382.161 332.78099999999995 400 L 298.3419999999999 400 z M 320.907 320 C 325.179 294.577 327.58299999999997 267.221 327.94599999999997 239 L 392.893 239 C 392.15799999999996 267.764 387.226 295.122 378.88 320 L 320.907 320 z M 407.899 224 C 407.22 195.793 402.722 168.44400000000002 394.716 143 L 429.204 143 C 440.521 168.254 446.899 195.654 447.858 224 L 407.899 224 z M 421.757 128 L 389.51 128 C 381.252 106.325 370.337 86.28399999999999 356.988 68.59100000000001 C 355.55 66.686 354.085 64.831 352.60699999999997 63.00000000000001 L 367.46099999999996 63.00000000000001 C 373.393 67.805 379.11499999999995 72.938 384.58799999999997 78.411 C 399.489 93.311 411.936 110.006 421.75699999999995 128 z M 346.526 48 L 339.237 48 C 335.654 44.367 331.97900000000004 40.929 328.21900000000005 37.689 C 334.47300000000007 40.818 340.5810000000001 44.258 346.52600000000007 48 z M 123.763 48 L 116.474 48 C 122.41900000000001 44.258 128.52700000000002 40.818 134.781 37.689 C 131.02100000000002 40.929 127.345 44.367 123.763 48 z M 78.411 78.411 C 83.885 72.938 89.606 67.805 95.539 63 L 110.393 63 C 108.915 64.831 107.449 66.686 106.012 68.591 C 92.663 86.28399999999999 81.749 106.32499999999999 73.49000000000001 128 L 41.24300000000001 128 C 51.06400000000001 110.006 63.51100000000001 93.311 78.411 78.411 z M 41.243 335 L 73.49000000000001 335 C 81.748 356.675 92.66300000000001 376.716 106.012 394.409 C 107.45 396.31399999999996 108.915 398.169 110.393 400 L 95.539 400 C 89.607 395.195 83.885 390.062 78.412 384.589 C 63.51100000000001 369.689 51.06400000000001 352.994 41.24300000000001 335 z M 116.47399999999999 415 L 123.76299999999999 415 C 127.34599999999999 418.633 131.021 422.071 134.781 425.311 C 128.52700000000002 422.18199999999996 122.41900000000001 418.74199999999996 116.474 415 z M 339.23699999999997 415 L 346.52599999999995 415 C 340.58099999999996 418.742 334.47299999999996 422.182 328.21899999999994 425.311 C 331.9789999999999 422.07099999999997 335.6549999999999 418.633 339.23699999999997 415 z M 384.58899999999994 384.589 C 379.11599999999993 390.062 373.39399999999995 395.195 367.46199999999993 400 L 352.60799999999995 400 C 354.08599999999996 398.169 355.55199999999996 396.314 356.9889999999999 394.409 C 370.3379999999999 376.716 381.2519999999999 356.675 389.5109999999999 335 L 421.7579999999999 335 C 411.9359999999999 352.994 399.4889999999999 369.689 384.58899999999994 384.589 z" stroke-linecap="round" />
</g>
<g transform="matrix(NaN NaN NaN NaN 0 0)"  >
<g style=""   >
</g>
</g>
<g transform="matrix(NaN NaN NaN NaN 0 0)"  >
<g style=""   >
</g>
</g>
</svg>