<?xml version="1.0" encoding="UTF-8" standalone="no" ?>
<!DOCTYPE svg PUBLIC "-//W3C//DTD SVG 1.1//EN" "http://www.w3.org/Graphics/SVG/1.1/DTD/svg11.dtd">
<svg xmlns="http://www.w3.org/2000/svg" xmlns:xlink="http://www.w3.org/1999/xlink" version="1.1" width="1080" height="1080" viewBox="0 0 1080 1080" xml:space="preserve">
<desc>Created with Fabric.js 5.2.4</desc>
<defs>
</defs>
<g transform="matrix(1 0 0 1 540 540)" id="ab296612-2d14-4ef5-9cc4-28284815291f"  >
<rect style="stroke: none; stroke-width: 1; stroke-dasharray: none; stroke-linecap: butt; stroke-dashoffset: 0; stroke-linejoin: miter; stroke-miterlimit: 4; fill: rgb(255,255,255); fill-rule: nonzero; opacity: 1; visibility: hidden;" vector-effect="non-scaling-stroke"  x="-540" y="-540" rx="0" ry="0" width="1080" height="1080" />
</g>
<g transform="matrix(1 0 0 1 540 540)" id="7947f4f4-0c64-40f7-be3b-d28639fe7a90"  >
</g>
<g transform="matrix(1 0 0 1 540 540)"  >
<g style="" vector-effect="non-scaling-stroke"   >
		<g transform="matrix(1.56 0 0 1.56 -266.21 203.3)"  >
<path style="stroke: none; stroke-width: 1; stroke-dasharray: none; stroke-linecap: butt; stroke-dashoffset: 0; stroke-linejoin: miter; stroke-miterlimit: 4; fill: rgb(255,255,255); fill-rule: nonzero; opacity: 1;" vector-effect="non-scaling-stroke"  transform=" translate(-85.62, -386.11)" d="M 97.73 377.029 L 73.514 377.029 C 68.5 377.029 64.43299999999999 381.097 64.43299999999999 386.11 C 64.43299999999999 391.12300000000005 68.50099999999999 395.19100000000003 73.514 395.19100000000003 L 97.73 395.19100000000003 C 102.744 395.19100000000003 106.811 391.12300000000005 106.811 386.11 C 106.811 381.097 102.744 377.029 97.73 377.029 z" stroke-linecap="round" />
</g>
		<g transform="matrix(1.56 0 0 1.56 -266.21 278.97)"  >
<path style="stroke: none; stroke-width: 1; stroke-dasharray: none; stroke-linecap: butt; stroke-dashoffset: 0; stroke-linejoin: miter; stroke-miterlimit: 4; fill: rgb(255,255,255); fill-rule: nonzero; opacity: 1;" vector-effect="non-scaling-stroke"  transform=" translate(-85.62, -434.54)" d="M 97.73 425.461 L 73.514 425.461 C 68.5 425.461 64.43299999999999 429.529 64.43299999999999 434.54200000000003 C 64.43299999999999 439.55500000000006 68.50099999999999 443.62300000000005 73.514 443.62300000000005 L 97.73 443.62300000000005 C 102.744 443.62300000000005 106.811 439.55500000000006 106.811 434.54200000000003 C 106.811 429.529 102.744 425.461 97.73 425.461 z" stroke-linecap="round" />
</g>
		<g transform="matrix(1.56 0 0 1.56 -143.24 203.3)"  >
<path style="stroke: none; stroke-width: 1; stroke-dasharray: none; stroke-linecap: butt; stroke-dashoffset: 0; stroke-linejoin: miter; stroke-miterlimit: 4; fill: rgb(255,255,255); fill-rule: nonzero; opacity: 1;" vector-effect="non-scaling-stroke"  transform=" translate(-164.32, -386.11)" d="M 170.379 377.029 L 158.271 377.029 C 153.25699999999998 377.029 149.19 381.097 149.19 386.11 C 149.19 391.12300000000005 153.258 395.19100000000003 158.271 395.19100000000003 L 170.379 395.19100000000003 C 175.393 395.19100000000003 179.45999999999998 391.12300000000005 179.45999999999998 386.11 C 179.45999999999998 381.097 175.393 377.029 170.379 377.029 z" stroke-linecap="round" />
</g>
		<g transform="matrix(1.56 0 0 1.56 -143.24 278.97)"  >
<path style="stroke: none; stroke-width: 1; stroke-dasharray: none; stroke-linecap: butt; stroke-dashoffset: 0; stroke-linejoin: miter; stroke-miterlimit: 4; fill: rgb(255,255,255); fill-rule: nonzero; opacity: 1;" vector-effect="non-scaling-stroke"  transform=" translate(-164.32, -434.54)" d="M 170.379 425.461 L 158.271 425.461 C 153.25699999999998 425.461 149.19 429.529 149.19 434.54200000000003 C 149.19 439.55500000000006 153.258 443.62300000000005 158.271 443.62300000000005 L 170.379 443.62300000000005 C 175.393 443.62300000000005 179.45999999999998 439.55500000000006 179.45999999999998 434.54200000000003 C 179.45999999999998 429.529 175.393 425.461 170.379 425.461 z" stroke-linecap="round" />
</g>
		<g transform="matrix(1.56 0 0 1.56 -266.21 127.62)"  >
<path style="stroke: none; stroke-width: 1; stroke-dasharray: none; stroke-linecap: butt; stroke-dashoffset: 0; stroke-linejoin: miter; stroke-miterlimit: 4; fill: rgb(255,255,255); fill-rule: nonzero; opacity: 1;" vector-effect="non-scaling-stroke"  transform=" translate(-85.62, -337.68)" d="M 97.73 328.596 L 73.514 328.596 C 68.5 328.596 64.43299999999999 332.664 64.43299999999999 337.677 C 64.43299999999999 342.69000000000005 68.50099999999999 346.75800000000004 73.514 346.75800000000004 L 97.73 346.75800000000004 C 102.744 346.75800000000004 106.811 342.69000000000005 106.811 337.677 C 106.811 332.664 102.744 328.596 97.73 328.596 z" stroke-linecap="round" />
</g>
		<g transform="matrix(1.56 0 0 1.56 -200 146.54)"  >
<path style="stroke: none; stroke-width: 1; stroke-dasharray: none; stroke-linecap: butt; stroke-dashoffset: 0; stroke-linejoin: miter; stroke-miterlimit: 4; fill: rgb(255,255,255); fill-rule: nonzero; opacity: 1;" vector-effect="non-scaling-stroke"  transform=" translate(-128, -349.78)" d="M 230.92 292.271 C 225.90599999999998 292.271 221.839 296.339 221.839 301.35200000000003 L 221.839 318.91100000000006 L 155.244 318.91100000000006 L 155.244 240.81100000000006 C 155.244 235.79700000000005 151.176 231.73000000000008 146.163 231.73000000000008 C 141.149 231.73000000000008 137.08200000000002 235.7980000000001 137.08200000000002 240.81100000000006 L 137.08200000000002 268.0540000000001 L 34.162 268.0540000000001 L 34.162 216.59400000000008 C 34.162 211.58000000000007 30.094 207.5130000000001 25.081 207.5130000000001 C 20.067999999999998 207.5130000000001 16 211.582 16 216.595 L 16 476.92100000000005 C 16 485.26900000000006 22.787 492.05600000000004 31.134999999999998 492.05600000000004 L 224.86599999999999 492.05600000000004 C 233.214 492.05600000000004 240.00099999999998 485.26900000000006 240.00099999999998 476.92100000000005 L 240.00099999999998 301.353 C 240.002 296.339 235.934 292.271 230.92 292.271 z M 221.839 473.894 L 34.162 473.894 L 34.162 286.217 L 137.082 286.217 L 137.082 337.07399999999996 L 221.839 337.07399999999996 L 221.839 473.894 z" stroke-linecap="round" />
</g>
		<g transform="matrix(1.56 0 0 1.56 37.66 0)"  >
<path style="stroke: none; stroke-width: 1; stroke-dasharray: none; stroke-linecap: butt; stroke-dashoffset: 0; stroke-linejoin: miter; stroke-miterlimit: 4; fill: rgb(255,255,255); fill-rule: nonzero; opacity: 1;" vector-effect="non-scaling-stroke"  transform=" translate(-280.1, -256)" d="M 485.193 16.349 L 107.621 16.349 C 103.77799999999999 16.349 100.195 18.418 98.238 21.788 L 65.627 78.853 C 63.717 82.187 63.723 86.326 65.651 89.661 C 67.578 92.984 71.161 95.053 75.00399999999999 95.053 L 188.861 95.053 C 188.595 95.904 188.32899999999998 130.644 188.32899999999998 130.644 L 103.24599999999998 130.644 C 95.19899999999998 130.644 88.64899999999999 137.195 88.64899999999999 145.247 L 88.64899999999999 179.11200000000002 C 88.64899999999999 187.16400000000002 95.19999999999999 193.71500000000003 103.24599999999998 193.71500000000003 L 285.945 193.71500000000003 C 293.992 193.71500000000003 300.542 187.16400000000004 300.542 179.11200000000002 L 300.542 145.247 C 300.542 137.19500000000002 293.991 130.644 285.945 130.644 L 206.49099999999999 130.644 C 206.49099999999999 130.644 206.219 95.904 205.95899999999997 95.053 L 366.895 95.053 L 366.895 495.652 L 385.05699999999996 495.652 L 385.05699999999996 428.47799999999995 L 427.436 470.85699999999997 L 427.436 495.65299999999996 L 445.59799999999996 495.65299999999996 L 445.59799999999996 95.052 L 485.19199999999995 95.052 C 491.15199999999993 95.052 495.99899999999997 90.20400000000001 495.99899999999997 84.233 L 495.99899999999997 27.156 C 496 21.197 491.152 16.349 485.193 16.349 z M 282.38 175.553 L 106.811 175.553 L 106.811 148.80599999999998 L 282.38 148.80599999999998 L 282.38 175.553 z M 385.057 153.76 L 419.584 188.28699999999998 L 385.057 222.81399999999996 L 385.057 153.76 z M 385.057 243.697 L 419.584 278.224 L 385.057 312.751 L 385.057 243.697 z M 400.305 233.256 L 427.43600000000004 206.125 L 427.43600000000004 260.387 L 400.305 233.256 z M 427.436 170.45 L 400.30499999999995 143.319 L 427.4359999999999 116.18799999999999 L 427.4359999999999 170.45 z M 373.919 76.89 L 408.222 42.587 L 442.519 76.89 L 373.919 76.89 z M 213.621 46.915 L 243.596 76.89 L 183.652 76.89 L 213.621 46.915 z M 166.058 68.802 L 131.767 34.51100000000001 L 200.343 34.51100000000001 L 166.058 68.802 z M 226.906 34.511 L 295.476 34.511 L 261.19100000000003 68.80199999999999 L 226.906 34.511 z M 308.76 46.915 L 338.735 76.89 L 278.785 76.89 L 308.76 46.915 z M 356.33 68.802 L 322.039 34.51100000000001 L 390.615 34.51100000000001 L 356.33 68.802 z M 110.134 37.58 C 110.572 38.638 148.463 76.89 148.463 76.89 L 87.668 76.89 L 110.134 37.58 z M 422.89 95.052 L 385.058 132.87800000000001 L 385.058 95.052 L 422.89 95.052 z M 385.057 333.627 L 421.13300000000004 369.697 L 385.057 407.411 L 385.057 333.627 z M 427.436 445.167 L 400.16299999999995 417.89399999999995 L 427.436 389.38499999999993 L 427.436 445.167 z M 400.305 323.192 L 427.43600000000004 296.06100000000004 L 427.43600000000004 350.317 L 400.305 323.192 z M 477.838 76.89 L 468.083 76.89 C 467.988 76.784 425.82800000000003 34.511 425.82800000000003 34.511 L 477.838 34.511 L 477.838 76.89 z" stroke-linecap="round" />
</g>
</g>
</g>
<g transform="matrix(NaN NaN NaN NaN 0 0)"  >
<g style=""   >
</g>
</g>
<g transform="matrix(NaN NaN NaN NaN 0 0)"  >
<g style=""   >
</g>
</g>
</svg>