<?xml version="1.0" standalone="no"?>
<!DOCTYPE svg PUBLIC "-//W3C//DTD SVG 20010904//EN"
 "http://www.w3.org/TR/2001/REC-SVG-20010904/DTD/svg10.dtd">
<svg version="1.0" xmlns="http://www.w3.org/2000/svg"
 width="1640.000000pt" height="600.000000pt" viewBox="0 0 1640.000000 600.000000"
 preserveAspectRatio="xMidYMid meet">

<g transform="translate(0.000000,600.000000) scale(0.100000,-0.100000)"
fill="#000000" stroke="none">
<path d="M3770 3020 l0 -1620 305 0 305 0 2 558 3 557 225 3 225 2 324 -560
324 -560 344 0 344 0 -15 28 c-8 15 -163 285 -345 601 -182 315 -331 575 -331
578 0 2 17 11 38 20 20 8 75 40 122 70 275 180 431 463 447 815 18 384 -120
705 -389 908 -138 104 -291 167 -486 201 -105 17 -166 19 -778 19 l-664 0 0
-1620z m1322 1019 c132 -28 258 -121 312 -232 15 -30 34 -92 43 -137 52 -263
-104 -500 -365 -556 -50 -10 -150 -14 -384 -14 l-318 0 0 475 0 475 330 0
c201 0 350 -4 382 -11z"/>
<path d="M15199 3659 c-139 -14 -274 -74 -386 -169 l-58 -50 -3 95 -3 95 -304
0 -305 0 0 -1115 0 -1115 304 0 305 0 3 673 c3 596 6 678 21 730 38 129 101
213 193 257 73 36 222 41 305 10 33 -12 62 -20 64 -18 1 1 27 136 57 298 38
204 52 297 44 301 -20 11 -160 16 -237 8z"/>
<path d="M7407 3650 c-198 -35 -403 -139 -551 -281 -229 -217 -348 -504 -347
-840 1 -207 34 -362 111 -524 199 -414 601 -652 1069 -632 212 9 387 66 560
182 103 69 244 217 292 308 9 16 -17 31 -236 137 -135 66 -248 120 -252 120
-3 0 -32 -24 -63 -54 -67 -64 -139 -103 -229 -122 -198 -42 -376 8 -501 142
-51 56 -120 171 -120 203 0 8 206 11 740 11 696 0 741 1 748 18 15 37 7 354
-12 457 -81 437 -332 736 -713 851 -79 24 -107 27 -268 30 -99 1 -202 -1 -228
-6z m304 -550 c81 -15 170 -63 223 -120 45 -48 107 -163 120 -222 l6 -28 -464
0 -465 0 10 33 c19 66 73 157 126 210 112 112 275 159 444 127z"/>
<path d="M12375 3640 c-112 -24 -155 -40 -275 -101 -461 -234 -690 -793 -548
-1334 100 -380 392 -683 759 -789 223 -64 456 -62 669 6 150 48 276 121 393
228 56 51 177 202 177 221 0 5 -112 65 -249 133 l-249 125 -30 -38 c-39 -49
-126 -107 -200 -132 -71 -25 -217 -35 -295 -20 -149 28 -283 132 -350 272 -21
42 -37 79 -37 83 0 3 335 6 744 6 l744 0 7 43 c4 23 7 98 7 167 -3 571 -286
993 -750 1121 -114 31 -392 36 -517 9z m339 -540 c128 -21 239 -106 300 -233
20 -39 39 -87 42 -104 l7 -33 -463 0 -462 0 6 28 c15 63 72 159 127 215 112
112 266 156 443 127z"/>
<path d="M9020 3578 c10 -29 190 -523 399 -1098 209 -575 382 -1053 386 -1063
7 -16 28 -17 294 -15 l286 3 380 1040 c209 572 392 1073 407 1113 l27 72 -313
0 -313 0 -233 -692 c-127 -381 -235 -696 -238 -700 -4 -4 -113 308 -242 693
l-235 699 -312 0 -313 0 20 -52z"/>
</g>
</svg>
